<svg width="86" height="128" viewBox="0 0 86 128" fill="none" xmlns="http://www.w3.org/2000/svg">
<rect x="8.5" y="10.5" width="61" height="116" rx="3.5" fill="#0B3536" stroke="#0B3536" stroke-width="3"/>
<rect x="1.5" y="1.5" width="61" height="116" rx="3.5" fill="#F54123" stroke="#0B3536" stroke-width="3"/>
<path d="M20.935 29.168C20.473 29.168 20.025 29.098 19.591 28.958C18.877 28.748 18.296 28.419 17.848 27.971C17.162 27.341 16.651 26.529 16.315 25.535C16.231 25.297 16.175 25.087 16.147 24.905L20.242 23.939C20.242 24.009 20.263 24.107 20.305 24.233C20.375 24.541 20.494 24.751 20.662 24.863C20.732 24.919 20.802 24.947 20.872 24.947C21.012 24.975 21.159 24.94 21.313 24.842C21.383 24.814 21.453 24.744 21.523 24.632C21.607 24.534 21.684 24.359 21.754 24.107C21.894 23.589 21.964 22.686 21.964 21.398V14.195H26.164V21.398C26.164 23.022 26.052 24.282 25.828 25.178C25.492 26.396 24.855 27.383 23.917 28.139C23.049 28.825 22.055 29.168 20.935 29.168ZM38.7322 24.275C39.2922 24.835 39.5722 25.507 39.5722 26.291C39.5722 27.075 39.2922 27.747 38.7322 28.307C38.1722 28.867 37.5002 29.147 36.7162 29.147C35.9322 29.147 35.2532 28.867 34.6792 28.307C34.1192 27.747 33.8392 27.075 33.8392 26.291C33.8392 25.507 34.1192 24.835 34.6792 24.275C35.2532 23.715 35.9322 23.435 36.7162 23.435C37.5002 23.435 38.1722 23.715 38.7322 24.275Z" fill="white"/>
<path d="M24.715 39.195H28.768V54H23.392L20.767 45.873L20.872 54H16.84V39.195H21.901L24.82 47.763L24.715 39.195ZM49.1052 45.789C49.1052 46.839 49.0002 47.826 48.7902 48.75C48.5942 49.674 48.2652 50.542 47.8032 51.354C47.3552 52.166 46.7182 52.824 45.8922 53.328C45.0662 53.818 44.0862 54.091 42.9522 54.147H42.9102H42.8892C40.9572 54.119 39.4172 53.384 38.2692 51.942C37.1352 50.5 36.5542 48.75 36.5262 46.692C36.5122 45.348 36.7292 44.116 37.1772 42.996C37.6252 41.862 38.3252 40.931 39.2772 40.203C40.2432 39.461 41.3842 39.069 42.7002 39.027H42.7212H42.7422C44.0302 39.013 45.1922 39.391 46.2282 40.161C47.2782 40.931 48.0342 41.932 48.4962 43.164L44.2752 44.088C43.8832 43.57 43.3722 43.283 42.7422 43.227C42.0422 43.269 41.5242 43.626 41.1882 44.298C40.8662 44.97 40.7122 45.747 40.7262 46.629C40.7402 47.483 40.9152 48.246 41.2512 48.918C41.5872 49.576 42.1332 49.926 42.8892 49.968C43.6732 49.926 44.2332 49.471 44.5692 48.603H42.6372V45.789H49.1052ZM25.534 77.349C24.624 77.895 23.623 78.168 22.531 78.168C21.439 78.168 20.438 77.895 19.528 77.349C18.268 76.593 17.463 75.48 17.113 74.01C16.931 73.268 16.84 72.008 16.84 70.23V63.195H21.04V70.23C21.04 71.672 21.089 72.603 21.187 73.023C21.285 73.359 21.467 73.611 21.733 73.779C21.915 73.905 22.181 73.968 22.531 73.968C22.853 73.968 23.112 73.905 23.308 73.779C23.602 73.597 23.784 73.345 23.854 73.023C23.952 72.603 24.001 71.672 24.001 70.23V63.195H28.201V70.23C28.201 72.008 28.11 73.268 27.928 74.01C27.592 75.452 26.794 76.565 25.534 77.349ZM46.9355 63.195L43.6385 72.33V78H39.0185V72.33L35.7425 63.195H40.0685L41.3285 68.508L42.6095 63.195H46.9355ZM26.857 92.395H21.334V93.424H26.227V97.288H21.334V98.8H26.857V103L17.134 103.021V88.216L26.857 88.195V92.395ZM42.9916 88.195H47.0446V103H41.6686L39.0436 94.873L39.1486 103H35.1166V88.195H40.1776L43.0966 96.763L42.9916 88.195Z" fill="#0B3536"/>
</svg>
