<svg width="109" height="55" viewBox="0 0 109 55" fill="none" xmlns="http://www.w3.org/2000/svg">
<path d="M27.5 1C42.1 1 54 12.9 54 27.5C54 42.1 42.1 54 27.5 54C12.9 54 1 42.1 1 27.5C1 12.9 12.9 1 27.5 1ZM27.5 0C12.3 0 0 12.3 0 27.5C0 42.7 12.3 55 27.5 55C42.7 55 55 42.7 55 27.5C55 12.3 42.7 0 27.5 0Z" fill="white"/>
<path d="M45.6001 1.5C59.9001 1.5 71.6001 13.2 71.6001 27.5C71.6001 41.8 59.9001 53.5 45.6001 53.5C31.3001 53.5 19.6001 41.8 19.6001 27.5C19.6001 13.2 31.3001 1.5 45.6001 1.5ZM45.6001 0C30.4001 0 18.1001 12.3 18.1001 27.5C18.1001 42.7 30.4001 55 45.6001 55C60.8001 55 73.1001 42.7 73.1001 27.5C73.1001 12.3 60.8001 0 45.6001 0Z" fill="white"/>
<path d="M63.5 2C77.6 2 89 13.4 89 27.5C89 41.6 77.6 53 63.5 53C49.4 53 38 41.6 38 27.5C38 13.4 49.4 2 63.5 2ZM63.5 0C48.3 0 36 12.3 36 27.5C36 42.7 48.3 55 63.5 55C78.7 55 91 42.7 91 27.5C91 12.3 78.7 0 63.5 0Z" fill="white"/>
<path d="M81.3999 53.5C95.7593 53.5 107.4 41.8594 107.4 27.5C107.4 13.1406 95.7593 1.5 81.3999 1.5C67.0405 1.5 55.3999 13.1406 55.3999 27.5C55.3999 41.8594 67.0405 53.5 81.3999 53.5Z" fill="#F54123"/>
<path d="M81.3999 3C94.8999 3 105.9 14 105.9 27.5C105.9 41 94.8999 52 81.3999 52C67.8999 52 56.8999 41 56.8999 27.5C56.8999 14 67.8999 3 81.3999 3ZM81.3999 0C66.1999 0 53.8999 12.3 53.8999 27.5C53.8999 42.7 66.1999 55 81.3999 55C96.5999 55 108.9 42.7 108.9 27.5C108.9 12.3 96.5999 0 81.3999 0Z" fill="white"/>
<path d="M73.6 28.2C75.5882 28.2 77.2 25.0213 77.2 21.1C77.2 17.1788 75.5882 14 73.6 14C71.6118 14 70 17.1788 70 21.1C70 25.0213 71.6118 28.2 73.6 28.2Z" fill="white"/>
<path d="M89.6 28.2C91.5882 28.2 93.2 25.0213 93.2 21.1C93.2 17.1788 91.5882 14 89.6 14C87.6118 14 86 17.1788 86 21.1C86 25.0213 87.6118 28.2 89.6 28.2Z" fill="white"/>
<path d="M66.7998 33.7112C71.5854 47.5813 91.2144 47.5813 96 33.7112" stroke="white" stroke-width="3" stroke-miterlimit="10" stroke-linecap="round" stroke-linejoin="round"/>
</svg>
