<svg id="Calque_1" data-name="Calque 1" xmlns="http://www.w3.org/2000/svg" viewBox="0 0 79.5 77.21"><defs><style>.cls-1{fill:none;stroke-linecap:round;stroke-linejoin:round;}.cls-1,.cls-2{stroke:#fff;stroke-width:3px;}.cls-2,.cls-3{fill:#fff;}.cls-2{stroke-miterlimit:10;}</style></defs><title>about_drinking</title><polygon class="cls-1" points="55.04 25.1 28.27 55.92 1.5 25.1 55.04 25.1"/><line class="cls-2" x1="28.27" y1="55.18" x2="28.27" y2="76.5"/><line class="cls-1" x1="18.4" y1="75.71" x2="38.14" y2="75.71"/><line class="cls-1" x1="13.26" y1="38.61" x2="43.27" y2="38.61"/><path class="cls-3" d="M63.57,24.84c6.66,2.55,7.89,11,14.55,13.5a1.4,1.4,0,0,0,1.63-.45q4.71-5.53,9.39-11.08c.33-.4.13-.82-.41-1-6.66-2.56-7.89-11-14.55-13.51a1.28,1.28,0,0,0-1.63.46L63.16,23.85C62.83,24.25,63,24.67,63.57,24.84Zm13.77-8.13-2.59,3.05a13,13,0,0,0-3.45-2.58l2.59-3.06A13,13,0,0,1,77.34,16.71Zm.1,14,2.94-3.48a42.79,42.79,0,0,1-2.81-3.73l2.59-3.06A44.51,44.51,0,0,0,83,24.15L80.38,27.2A12.71,12.71,0,0,0,84,30L81,33.43A12.58,12.58,0,0,1,77.44,30.68ZM72,30.08,74.65,27a41.79,41.79,0,0,0,2.79,3.71l-2.63,3.1A41.65,41.65,0,0,1,72,30.08Zm-.21-6.84,2.94-3.48a37.36,37.36,0,0,1,2.82,3.71L74.63,27A39.36,39.36,0,0,0,71.81,23.24Zm-6.08.52c.87-1,1.75-2.07,2.63-3.11a13.06,13.06,0,0,1,3.43,2.57l-2.63,3.1A12.66,12.66,0,0,0,65.73,23.76Z" transform="translate(-9.8 -9.32)"/><line class="cls-1" x1="28.78" y1="44.56" x2="65.38" y2="1.5"/></svg>