<svg width="80" height="80" viewBox="0 0 80 80" fill="none" xmlns="http://www.w3.org/2000/svg">
<path d="M68.2843 11.7157C60.73 4.16077 50.6842 0 40 0C29.3158 0 19.27 4.16077 11.7157 11.7157C4.16077 19.27 0 29.3158 0 40C0 50.6842 4.16077 60.73 11.7157 68.2843C19.27 75.8392 29.3158 80 40 80C45.3424 80 50.5249 78.9594 55.3156 76.9751C60.1062 74.9908 64.5062 72.0624 68.2843 68.2843C75.8392 60.73 80 50.6842 80 40C80 29.3158 75.8392 19.27 68.2843 11.7157ZM53.7256 50.4114C59.7455 45.1239 67.2485 42.0917 75.2527 41.7139C74.8822 49.447 71.9867 57.0801 66.5735 63.2593L53.7256 50.4114ZM75.1703 37.0233V37.0258C70.7318 37.2223 66.3983 38.1445 62.254 39.7833C57.8864 41.51 53.9105 43.9648 50.4053 47.0905L43.3142 40L66.5735 16.7407C71.6919 22.583 74.5593 29.7247 75.1703 37.0233ZM39.7833 62.254C38.1451 66.3977 37.2229 70.7324 37.0264 75.1703C37.0251 75.1703 37.0245 75.1703 37.0233 75.1703C29.7247 74.5593 22.583 71.6919 16.7407 66.5735L40 43.3142L47.0905 50.4053C43.9648 53.9105 41.51 57.8864 39.7833 62.254ZM26.2738 29.5886C20.2545 34.8749 12.749 37.9041 4.74731 38.2849C5.1178 30.5518 8.0127 22.9199 13.4265 16.7407L26.2738 29.5886ZM16.7407 13.4265C22.9199 8.01147 30.5536 5.11597 38.2861 4.74548C37.9077 12.7509 34.8761 20.2545 29.5886 26.2738L16.7407 13.4265ZM40.2167 17.7454C41.8549 13.6017 42.7771 9.26636 42.9736 4.82788H42.9779C50.2747 5.44067 57.417 8.30627 63.2593 13.4265L40 36.6852L32.9095 29.5947C36.0345 26.0889 38.4894 22.1136 40.2167 17.7454ZM4.82971 42.9767C4.82971 42.9761 4.82971 42.9761 4.82971 42.9761C9.26758 42.7789 13.6017 41.8549 17.7454 40.2167C22.1136 38.49 26.0889 36.0352 29.5947 32.9095L36.6852 40L13.4265 63.2593C8.3075 57.417 5.44067 50.2747 4.82971 42.9767ZM41.7139 75.2533C42.0923 67.2479 45.1239 59.7455 50.4114 53.7256L63.2593 66.5735C57.0801 71.9873 49.4476 74.8822 41.7139 75.2533Z" fill="#0B3536" stroke="white" stroke-width="1.5"/>
</svg>
