<svg id="Calque_1" data-name="Calque 1" xmlns="http://www.w3.org/2000/svg" viewBox="0 0 70.66 70.65"><defs><style>.cls-1{fill:#0b3536;}</style></defs><title>ok</title><path class="cls-1" d="M54.83,16.73l.23-.94L53.52,15l-.61.74-2.06-1,5.21-5.5,2.18,1.1-1.35,7.46Zm0-3.29.69.35.39-1.63Z" transform="translate(-5.95 -5.96)"/><path class="cls-1" d="M65,15.14l1.72,1.49-4.75,5.49-1.45-1.25,2.83-3.27-2.48,2-1.06-.92,1.61-2.73L58.56,19.2,57.11,18l4.75-5.5,1.72,1.49-1.64,3.3Z" transform="translate(-5.95 -5.96)"/><path class="cls-1" d="M64.72,25.94l.64-.72-1-1.4-.89.36L62.14,22.3l7.17-2.44,1.41,2-4.67,6ZM66.27,23l.45.63,1.1-1.26Z" transform="translate(-5.95 -5.96)"/><path class="cls-1" d="M72.83,25.36l1.74,4.08-1.45.61-4.24-.64.88,2.08-1.89.8-1.74-4.07,1.48-.63,4.17.55-.84-2Z" transform="translate(-5.95 -5.96)"/><path class="cls-1" d="M68.56,35,68,33l7-1.87.53,2Z" transform="translate(-5.95 -5.96)"/><path class="cls-1" d="M76.43,38.79l.18,2-7.23.69-.24-2.62L73,37.18l-4,.42-.19-2L76.06,35l.23,2.47-4,1.82Z" transform="translate(-5.95 -5.96)"/><path class="cls-1" d="M72.6,48.44a7.57,7.57,0,0,1-1.42-.33,4.63,4.63,0,0,1-1.2-.65,2.52,2.52,0,0,1-.84-1.06,3.07,3.07,0,0,1-.22-1.48v0h0a2.74,2.74,0,0,1,1.36-2.1A4.11,4.11,0,0,1,73,42.26a4.72,4.72,0,0,1,1.76.55A3.22,3.22,0,0,1,75.94,44a2.84,2.84,0,0,1,.35,1.74h0a2.76,2.76,0,0,1-.77,1.63,3.18,3.18,0,0,1-1.6.91l-.19-2.11a1,1,0,0,0,.52-.7.85.85,0,0,0-.43-.81,2.36,2.36,0,0,0-1.1-.38,2.5,2.5,0,0,0-1.14.11.9.9,0,0,0-.62.73.92.92,0,0,0,.56.91l.12-.94,1.37.17Z" transform="translate(-5.95 -5.96)"/><path class="cls-1" d="M68.24,54.32a.6.6,0,0,0,.23.62L67.2,56.58a2.65,2.65,0,0,1-1-2.73,2.27,2.27,0,0,1,.2-.57,3.06,3.06,0,0,1,.35-.59c1-1.16,2.35-1.31,4.19-.45s2.67,2.07,2.38,3.55A2.85,2.85,0,0,1,72.82,57a2.66,2.66,0,0,1-2.72,1l.46-2a.49.49,0,0,0,.33,0,.58.58,0,0,0,.3-.19.66.66,0,0,0-.09-1,2.67,2.67,0,0,0-.46-.35,5,5,0,0,0-.53-.28l-.4-.18a2.48,2.48,0,0,0-.43-.13,1,1,0,0,0-.44,0,.67.67,0,0,0-.35.17A.74.74,0,0,0,68.24,54.32Z" transform="translate(-5.95 -5.96)"/><path class="cls-1" d="M63.31,58.35h0a2.75,2.75,0,0,1,2.21-1.14,4,4,0,0,1,2.59.91,4.09,4.09,0,0,1,1.61,2.23,2.79,2.79,0,0,1-.49,2.47h0A2.84,2.84,0,0,1,67,64a4,4,0,0,1-2.59-.91,4.12,4.12,0,0,1-1.6-2.24,2.72,2.72,0,0,1,.48-2.45Zm4.28,3.21a.8.8,0,0,0,.14-.7,2.08,2.08,0,0,0-.85-1.1,2.13,2.13,0,0,0-1.29-.51.9.9,0,0,0-.66.34.84.84,0,0,0-.14.7,2.09,2.09,0,0,0,.86,1.11,2.18,2.18,0,0,0,1.29.5A.88.88,0,0,0,67.59,61.56Z" transform="translate(-5.95 -5.96)"/><path class="cls-1" d="M62.86,69.1l-1.54,1.26-4.6-5.61,2-1.67,3.52,2.26-2.57-3.05L61.24,61l4.61,5.61-1.92,1.58-3.77-2.35Z" transform="translate(-5.95 -5.96)"/><path class="cls-1" d="M55.31,73.67l-1-1.83,1.31-.68-2.41-4.61,1.83-1,2.4,4.61,1.3-.68,1,1.83Z" transform="translate(-5.95 -5.96)"/><path class="cls-1" d="M48.32,73.76l2.6-.76-.14-.48-2.3.67-.54-1.82,2.3-.67L50,70l-2.6.76-.58-2,4.57-1.35,2,7L48.9,75.74Z" transform="translate(-5.95 -5.96)"/><path class="cls-1" d="M43,76.47l-2,.14-.54-7.24,2.63-.19,1.58,3.87-.35-4,2-.14.55,7.24-2.48.18-1.74-4.08Z" transform="translate(-5.95 -5.96)"/><path class="cls-1" d="M34.19,75.88l.27-2,1.46.19.67-5.16,2,.26L38,74.29l1.45.19-.26,2Z" transform="translate(-5.95 -5.96)"/><path class="cls-1" d="M28.28,66.09l-.21.94,1.55.73.6-.75,2.09,1-5.07,5.63-2.21-1,1.16-7.48Zm0,3.28L27.64,69l-.35,1.64Z" transform="translate(-5.95 -5.96)"/><path class="cls-1" d="M24.05,63.25h0a2.75,2.75,0,0,1,1.14,2.21,4,4,0,0,1-.92,2.59A4.09,4.09,0,0,1,22,69.66a2.76,2.76,0,0,1-2.46-.49h0a2.83,2.83,0,0,1-1.12-2.23,3.94,3.94,0,0,1,.91-2.58,4.07,4.07,0,0,1,2.24-1.6,2.72,2.72,0,0,1,2.45.49Zm-3.22,4.28a.8.8,0,0,0,.7.14,2.08,2.08,0,0,0,1.1-.85,2.13,2.13,0,0,0,.51-1.29.85.85,0,0,0-.34-.65.8.8,0,0,0-.7-.14,2,2,0,0,0-1.1.85,2.13,2.13,0,0,0-.51,1.29A.89.89,0,0,0,20.83,67.53Z" transform="translate(-5.95 -5.96)"/><path class="cls-1" d="M19.49,58.77h0a2.77,2.77,0,0,1,.61,2.41,4.05,4.05,0,0,1-1.48,2.31,4.11,4.11,0,0,1-2.55,1,2.74,2.74,0,0,1-2.28-1h0a2.85,2.85,0,0,1-.59-2.42,4,4,0,0,1,1.48-2.31,4.09,4.09,0,0,1,2.54-1.05,2.72,2.72,0,0,1,2.27,1Zm-4.1,3.43a.81.81,0,0,0,.65.3,2,2,0,0,0,1.26-.58,2.14,2.14,0,0,0,.79-1.14.85.85,0,0,0-.18-.71.82.82,0,0,0-.65-.3,2.1,2.1,0,0,0-1.27.58,2.2,2.2,0,0,0-.79,1.14A.84.84,0,0,0,15.39,62.2Z" transform="translate(-5.95 -5.96)"/><path class="cls-1" d="M16.06,53.34h0a2.75,2.75,0,0,1,0,2.48,4,4,0,0,1-2,1.92,4.12,4.12,0,0,1-2.71.44,2.75,2.75,0,0,1-2-1.53h0a2.8,2.8,0,0,1,0-2.49,4,4,0,0,1,2-1.91,4.07,4.07,0,0,1,2.71-.45,2.76,2.76,0,0,1,2,1.53Zm-4.79,2.4a.8.8,0,0,0,.57.44,2.09,2.09,0,0,0,1.36-.27,2.16,2.16,0,0,0,1-.93.87.87,0,0,0,0-.74.83.83,0,0,0-.57-.44,2.08,2.08,0,0,0-1.37.28,2.09,2.09,0,0,0-1,.93A.85.85,0,0,0,11.27,55.74Z" transform="translate(-5.95 -5.96)"/><path class="cls-1" d="M14,47.53A2.8,2.8,0,0,1,14,49.05a2.52,2.52,0,0,1-1.33,1.53,8.42,8.42,0,0,1-1.78.54L7.5,51.9l-.46-2,3.36-.77a8.21,8.21,0,0,0,1.32-.38.64.64,0,0,0,.3-.35.67.67,0,0,0,0-.4.68.68,0,0,0-.17-.35.58.58,0,0,0-.43-.18,7.9,7.9,0,0,0-1.35.24l-3.36.78-.46-2,3.36-.78a8.76,8.76,0,0,1,1.84-.28,2.57,2.57,0,0,1,1.86.77A2.86,2.86,0,0,1,14,47.53Z" transform="translate(-5.95 -5.96)"/><path class="cls-1" d="M13.22,40.29l-.94.24,0,1.71.94.21,0,2.3-7.3-2,0-2.44L13.18,38ZM10.29,41.8V41l-1.62.42Z" transform="translate(-5.95 -5.96)"/><path class="cls-1" d="M14,34.52l-2,.49,0,.19,1.78.4-.46,2L6.26,36l.53-2.37a2.73,2.73,0,0,1,.91-1.53,2.54,2.54,0,0,1,1.56-.63,2.56,2.56,0,0,1,1.66.39A2.6,2.6,0,0,1,12,33.11h0v0l2.53-.77Zm-4.61-1a.72.72,0,0,0-.7.59l-.08.37,1.43.32.09-.42a.63.63,0,0,0-.3-.76.67.67,0,0,0-.12-.06l-.12,0h-.2Z" transform="translate(-5.95 -5.96)"/><path class="cls-1" d="M13.6,25.41a4.83,4.83,0,0,1,1.06.62,3,3,0,0,1,.94,1.16,2.91,2.91,0,0,1,.28,1.15,3.7,3.7,0,0,1-.1,1,5.15,5.15,0,0,1-.28.84l-.82,1.77-6.6-3,.73-1.57a5.54,5.54,0,0,1,.56-1,4.07,4.07,0,0,1,.68-.73A3,3,0,0,1,12.5,25,5.7,5.7,0,0,1,13.6,25.41Zm.22,2.6a1.91,1.91,0,0,0-1-.8A1.84,1.84,0,0,0,11.62,27a1.32,1.32,0,0,0-.67.52,2.93,2.93,0,0,0-.27.46l3,1.4A1.62,1.62,0,0,0,13.82,28Z" transform="translate(-5.95 -5.96)"/><path class="cls-1" d="M11.25,22.5l2.58-3.6,1.28.92,1.65,3.95,1.32-1.83,1.67,1.2-2.58,3.6-1.31-.94L14.17,22,12.93,23.7Z" transform="translate(-5.95 -5.96)"/><path class="cls-1" d="M22.62,13.4q1.45,1.13.5,3.93l1.53-1.2,1.23,1.56-3.94,3.08-1-1.26c0-.09.07-.21.11-.37s.12-.43.24-.84.2-.78.27-1.12a7.24,7.24,0,0,0,.17-1,1.74,1.74,0,0,0,0-.72.71.71,0,0,0-.59-.49.74.74,0,0,0-.68.31.82.82,0,0,0-.1.81l-.88.28-.87.28a3.1,3.1,0,0,1,0-1.86,2.61,2.61,0,0,1,1.07-1.5,2.35,2.35,0,0,1,1.48-.41A2.74,2.74,0,0,1,22.62,13.4Z" transform="translate(-5.95 -5.96)"/><path class="cls-1" d="M29.64,15.73,27.15,13.8l0,0,1.23,2.54-1.86.9-3.14-6.55,1.85-.89,1.18,2.44.06,0-.09-3,2.21-1.06-.13,3.95,3.51,2.48Z" transform="translate(-5.95 -5.96)"/><path class="cls-1" d="M31.88,7.23l2-.53,1.85,7-2,.53L32.44,9.38,31.2,10.84,30.64,8.7Z" transform="translate(-5.95 -5.96)"/><path class="cls-1" d="M36.86,10.6a2,2,0,0,1-.77-.91,2.88,2.88,0,0,1-.26-1,3.47,3.47,0,0,1,0-.67,2.53,2.53,0,0,1,.91-1.44A3,3,0,0,1,38.41,6a2.61,2.61,0,0,1,2.05.72,3.54,3.54,0,0,1,1.08,2.06,6.46,6.46,0,0,1,0,1.76,3.88,3.88,0,0,1-.84,1.9,2.79,2.79,0,0,1-1.74.95,4.88,4.88,0,0,1-2.56-.42c.11-.2.27-.48.49-.85l.5-.83a3,3,0,0,0,1,.19,1,1,0,0,0,.72-.29,1.44,1.44,0,0,0,.46-.71,2.35,2.35,0,0,1-.85.43A2.29,2.29,0,0,1,36.86,10.6Zm1.72-2.74a.86.86,0,0,0-.53.2.52.52,0,0,0-.2.48.51.51,0,0,0,.26.42.89.89,0,0,0,.57.12,1,1,0,0,0,.52-.2.49.49,0,0,0,.2-.47C39.37,8,39.1,7.84,38.58,7.86Z" transform="translate(-5.95 -5.96)"/><path class="cls-1" d="M45.46,10.82a1.05,1.05,0,0,1,1.25-.88,1.08,1.08,0,1,1-1.25.88Z" transform="translate(-5.95 -5.96)"/></svg>