<svg width="83" height="83" viewBox="0 0 83 83" fill="none" xmlns="http://www.w3.org/2000/svg">
<path d="M73.2735 59.3323H69.816C71.3596 57.6102 72.3007 55.3371 72.3007 52.848C72.3007 47.5415 68.0284 43.2168 62.7432 43.1257C63.0827 38.644 61.8873 35.4304 59.1112 33.3372C56.442 31.3246 52.7174 30.6961 49.1152 30.0884C42.3165 28.9411 38.1129 27.8536 37.0644 22.4359C36.9777 21.988 36.7061 21.5973 36.3166 21.3598C35.9269 21.1221 35.4553 21.0597 35.0174 21.188C28.151 23.1978 23.5991 26.622 21.4882 31.3653C19.4743 35.8911 20.2226 40.4604 21.001 43.1213H20.4259C15.0627 43.1213 10.6993 47.4846 10.6993 52.8478C10.6993 55.337 11.6404 57.6101 13.184 59.3322H9.72652C4.36332 59.3322 0 63.6955 0 69.0587C0 74.4219 4.36332 78.7852 9.72652 78.7852H73.2735C78.6367 78.7852 83 74.4219 83 69.0587C83 63.6956 78.6367 59.3323 73.2735 59.3323ZM24.4504 32.6836C25.9987 29.2044 29.3232 26.5593 34.3435 24.8067C35.2669 27.5144 37.0316 29.5093 39.6998 30.8754C42.3574 32.236 45.5187 32.7695 48.5759 33.2853C55.9199 34.5247 60.1905 35.6362 59.4937 43.1214H24.4086C23.7458 41.2656 22.5822 36.8814 24.4504 32.6836ZM20.4259 46.3636H62.5741C66.1496 46.3636 69.0585 49.2725 69.0585 52.848C69.0585 56.4234 66.1496 59.3323 62.5741 59.3323H20.4259C16.8504 59.3323 13.9415 56.4233 13.9415 52.848C13.9415 49.2725 16.8504 46.3636 20.4259 46.3636ZM73.2735 75.5432H9.72652C6.15105 75.5432 3.24217 72.6343 3.24217 69.0588C3.24217 65.4834 6.15105 62.5745 9.72652 62.5745H73.2735C76.8489 62.5745 79.7578 65.4834 79.7578 69.0588C79.7578 72.6341 76.8489 75.5432 73.2735 75.5432Z" fill="#0B3536"/>
<circle cx="60.5" cy="17.5" r="3.5" fill="#0B3536"/>
<circle cx="41.5" cy="3.5" r="3.5" fill="#0B3536"/>
</svg>
