<svg width="80" height="80" viewBox="0 0 80 80" fill="none" xmlns="http://www.w3.org/2000/svg">
<g clip-path="url(#clip0)">
<path d="M67.4206 12.4345C63.766 4.50139 58.6852 0.155989 53.1365 0.155989L28.4902 0.111421C28 0.0445682 27.4874 0 26.9749 0C21.4039 0 16.3008 4.38997 12.6239 12.3677C9.19218 19.7883 7.32031 29.5933 7.32031 40C7.32031 50.4067 9.21446 60.2117 12.6239 67.6323C16.3008 75.61 21.4039 80 26.9749 80C27.4874 80 27.9777 79.9554 28.4902 79.8886L52.9582 79.844C58.5292 79.844 63.6323 75.5209 67.3315 67.5877C70.7855 60.1894 72.6797 50.3844 72.6797 40C72.6797 29.5933 70.8078 19.8106 67.4206 12.4345ZM27.6657 75.4986H27.5543C27.4206 75.4986 27.2869 75.5209 27.1532 75.5432C27.0863 75.5432 27.0195 75.5432 26.9526 75.5432C23.298 75.5432 19.5543 71.9777 16.6796 65.7827C13.5153 58.9415 11.7771 49.7827 11.7771 40C11.7771 30.2173 13.5153 21.0808 16.6796 14.2173C19.532 8 23.298 4.45682 26.9749 4.45682C30.6518 4.45682 34.4178 8.02228 37.2702 14.2173C40.4345 21.0585 42.1727 30.2173 42.1727 40C42.1727 49.7827 40.4345 58.9192 37.2702 65.7827C34.5961 71.5989 31.1198 75.0975 27.6657 75.4986ZM47.3203 64.2674C46.6072 64.8914 45.7827 65.5822 45.2479 66.5627C44.6685 67.61 44.4902 68.7242 44.312 69.7047C44.2228 70.2173 44.0891 70.9972 43.9554 71.1755C43.688 71.5098 42.9081 71.7326 42.1727 71.9554C41.3482 72.156 40.5682 72.468 39.8329 72.8691C38.9192 73.4262 38.2952 74.3398 37.7159 75.1643C37.649 75.2758 37.5599 75.3872 37.493 75.4763H36.2674C38.1393 73.4708 39.8551 70.8635 41.3482 67.6546C44.7799 60.234 46.6518 50.429 46.6518 40.0223C46.6518 29.6156 44.7576 19.8106 41.3482 12.39C39.8551 9.15877 38.1393 6.52925 36.2451 4.52368L40.3008 4.54596C40.5237 4.65738 40.7688 4.79109 41.0362 4.92479C42.0613 5.48189 43.3537 6.19499 43.9554 6.90808C44.1114 7.10864 44.2228 7.8663 44.312 8.37883C44.468 9.35933 44.6685 10.4735 45.2479 11.5209C45.7827 12.5014 46.6072 13.1922 47.3203 13.8162C47.8329 14.2618 48.4345 14.7744 48.5905 15.1532C48.7019 15.4206 48.6128 16.1783 48.5459 16.7354C48.4345 17.7604 48.3231 18.9415 48.6574 20.1448C48.9916 21.2813 49.6824 22.195 50.2841 22.9749C50.6852 23.5098 51.1532 24.0891 51.22 24.468C51.2869 24.7577 51.0863 25.4708 50.9304 26.0501C50.6629 27.0529 50.351 28.2117 50.507 29.4596C50.6629 30.663 51.2423 31.6657 51.7326 32.5571C52.0668 33.1365 52.4234 33.7604 52.4457 34.1393C52.468 34.4513 52.1783 35.1421 51.9554 35.6992C51.5543 36.6574 51.0863 37.7716 51.0863 39.0418C51.0863 40.312 51.5543 41.4039 51.9554 42.3844C52.1783 42.9415 52.468 43.6323 52.4457 43.9443C52.4234 44.3008 52.0446 44.9471 51.7326 45.5265C51.22 46.4178 50.6407 47.4206 50.507 48.624C50.351 49.8941 50.6629 51.0306 50.9304 52.0334C51.0863 52.6128 51.2869 53.3259 51.22 53.6156C51.1532 53.9944 50.6852 54.5738 50.2841 55.1086C49.6602 55.8886 48.9693 56.8022 48.6574 57.9387C48.3231 59.1643 48.4345 60.3231 48.5459 61.3482C48.6128 61.9053 48.6797 62.663 48.5905 62.9304C48.4345 63.3092 47.8551 63.8217 47.3203 64.2674ZM52.0446 69.7047C51.9554 70.2173 51.8217 70.9972 51.688 71.1755C51.4206 71.5098 50.6407 71.7326 49.9053 71.9554C49.3259 72.1114 48.7688 72.312 48.2117 72.5348C48.4345 71.844 48.6128 71.1532 48.7019 70.4401C48.8134 69.7716 48.9248 69.1031 49.1476 68.702C49.2813 68.4345 49.7716 68.0334 50.2173 67.6546C51.0863 66.8969 52.1783 65.9833 52.7354 64.5571C53.2256 63.2869 53.0919 62.0167 52.9805 60.8802C52.9136 60.2117 52.8468 59.5209 52.9582 59.1421C53.0473 58.8301 53.4485 58.3176 53.8273 57.8496C54.4958 56.9805 55.3426 55.8886 55.6323 54.4847C55.8997 53.1476 55.5655 51.9443 55.2758 50.8524C55.0975 50.2061 54.9192 49.5599 54.9638 49.1588C55.0083 48.8245 55.3426 48.2451 55.6546 47.7103C56.1894 46.7744 56.8579 45.5933 56.9471 44.1894C57.0362 42.8301 56.5459 41.6713 56.1003 40.6462C55.8551 40.0446 55.5877 39.3983 55.5877 39.0418C55.5877 38.6852 55.8551 38.039 56.1003 37.4373C56.5237 36.4123 57.0139 35.2312 56.9471 33.8942C56.8579 32.4903 56.1894 31.3092 55.6546 30.3733C55.3649 29.8607 55.0083 29.2591 54.9638 28.9248C54.9192 28.546 55.0975 27.8774 55.2758 27.2312C55.5655 26.1616 55.8997 24.9359 55.6323 23.5989C55.3426 22.195 54.5181 21.1031 53.8273 20.234C53.4707 19.766 53.0473 19.2312 52.9582 18.9415C52.8468 18.5404 52.9136 17.8719 52.9805 17.2033C53.0919 16.0891 53.2256 14.7967 52.7354 13.5487C52.1783 12.1226 51.0863 11.2089 50.2173 10.4513C49.7939 10.0947 49.3036 9.67131 49.1476 9.4039C48.9248 9.00279 48.8134 8.33426 48.7019 7.66574C48.5237 6.66295 48.3454 5.54875 47.7214 4.56825H48.078C48.3008 4.70195 48.5237 4.81337 48.7688 4.94708C49.7939 5.50418 51.0863 6.21727 51.688 6.93036C51.844 7.13092 51.9554 7.88858 52.0446 8.40111C52.2006 9.38162 52.4011 10.4958 52.9805 11.5432C53.5153 12.5237 54.3398 13.2145 55.0529 13.8384C55.5655 14.2841 56.1671 14.7967 56.3231 15.1532C56.4345 15.4206 56.3454 16.1783 56.2785 16.7354C56.1894 17.7382 56.0557 18.9192 56.39 20.1448C56.7242 21.2813 57.415 22.195 58.0167 22.9749C58.4178 23.5098 58.8858 24.0891 58.9526 24.468C59.0195 24.7577 58.8189 25.4708 58.6629 26.0501C58.3955 27.0529 58.0836 28.2117 58.2395 29.4596C58.3955 30.663 58.9749 31.6657 59.4652 32.5571C59.7994 33.1365 60.156 33.7604 60.1783 34.1393C60.2005 34.4513 59.9109 35.1421 59.688 35.6992C59.2869 36.6574 58.8189 37.7716 58.8189 39.0418C58.8189 40.312 59.2869 41.4039 59.688 42.3844C59.9109 42.9415 60.2005 43.6323 60.1783 43.9443C60.156 44.3008 59.7771 44.9471 59.4652 45.5265C58.9526 46.4178 58.3732 47.4206 58.2395 48.624C58.0836 49.8941 58.3955 51.0306 58.6629 52.0334C58.8189 52.6128 59.0195 53.3259 58.9526 53.6156C58.8858 53.9944 58.4178 54.5738 58.0167 55.1086C57.3927 55.8886 56.7019 56.8022 56.39 57.9387C56.0557 59.1643 56.1671 60.3231 56.2785 61.3482C56.3454 61.9053 56.4122 62.663 56.3231 62.9304C56.1671 63.3092 55.5877 63.8217 55.0529 64.2674C54.3398 64.8914 53.5153 65.5822 52.9805 66.5627C52.4011 67.61 52.2228 68.7242 52.0446 69.7047ZM63.298 65.7159C60.5125 71.6657 56.9025 75.1866 53.337 75.4095C54.0278 75.0752 54.6295 74.6072 55.1198 74.0279C56.0334 72.9359 56.2563 71.5989 56.4568 70.4401C56.5682 69.7716 56.6797 69.1031 56.9025 68.702C57.0362 68.4345 57.5265 68.0334 57.9721 67.6546C58.8412 66.8969 59.9331 65.9833 60.4902 64.5571C60.9805 63.2869 60.8468 62.0167 60.7354 60.8802C60.6685 60.2117 60.6017 59.5209 60.7131 59.1421C60.8022 58.8301 61.2033 58.3176 61.5822 57.8496C62.2507 56.9805 63.0975 55.8886 63.3872 54.4847C63.6546 53.1476 63.3203 51.9443 63.0306 50.8524C62.8524 50.2061 62.6741 49.5599 62.7187 49.1588C62.7632 48.8245 63.0975 48.2451 63.4095 47.7103C63.9443 46.7744 64.6128 45.5933 64.7019 44.1894C64.7911 42.8301 64.3008 41.6713 63.8551 40.6462C63.61 40.0446 63.3426 39.3983 63.3426 39.0418C63.3426 38.6852 63.61 38.039 63.8551 37.4373C64.2785 36.4123 64.7688 35.2312 64.7019 33.8942C64.6128 32.4903 63.9443 31.3092 63.4095 30.3733C63.1198 29.8607 62.7632 29.2591 62.7187 28.9248C62.6741 28.546 62.8524 27.8774 63.0306 27.2312C63.3203 26.1616 63.6546 24.9359 63.3872 23.5989C63.0975 22.195 62.273 21.1031 61.5822 20.234C61.2256 19.766 60.8022 19.2312 60.7131 18.9415C60.6017 18.5404 60.6685 17.8719 60.7354 17.2033C60.8468 16.0891 60.9805 14.7967 60.4902 13.5265C59.9331 12.1003 58.8412 11.1866 57.9721 10.429C57.5487 10.0724 57.0585 9.64902 56.9025 9.38162C56.6797 8.9805 56.5682 8.31198 56.4568 7.64345C56.3454 6.79666 56.1448 5.97215 55.8329 5.1922C58.5961 6.4624 61.2479 9.62674 63.3872 14.2841C66.507 21.0808 68.2228 30.2173 68.2228 40C68.2228 49.7604 66.4847 58.8747 63.298 65.7159Z" fill="#0B3536" stroke="white" stroke-width="1.5"/>
<path d="M26.9772 24C22.373 24 19.427 30.28 19.427 40C19.427 49.72 22.3906 56 26.9948 56C31.599 56 34.545 49.72 34.545 40C34.545 30.28 31.5814 24 26.9772 24ZM29.6056 49.4201C29.2528 50.3374 28.2826 52.4542 26.9948 52.4542C25.707 52.4542 24.7192 50.3374 24.3664 49.4201C23.4491 47.0562 22.9551 43.7045 22.9551 40C22.9551 36.2955 23.4667 32.9438 24.384 30.5799C24.7368 29.6626 25.707 27.5458 26.9948 27.5458C28.2826 27.5458 29.2528 29.6803 29.6056 30.5799C30.5229 32.9438 31.0345 36.2955 31.0345 40C31.0345 43.7045 30.5229 47.0562 29.6056 49.4201Z" fill="#0B3536" stroke="white" stroke-width="0.5"/>
</g>
<defs>
<clipPath id="clip0">
<rect width="80" height="80" fill="white"/>
</clipPath>
</defs>
</svg>
