<svg width="64" height="64" viewBox="0 0 64 64" fill="none" xmlns="http://www.w3.org/2000/svg">
<g clip-path="url(#clip0)">
<path d="M60.6561 0.206835C60.0958 -0.168786 59.3335 -0.0195165 58.9579 0.54208L54.5728 7.08915C49.998 5.13641 42.4562 4.04747 35.0711 4.04747C30.2161 4.04747 25.5582 4.51363 21.4924 5.36888C19.6155 2.76889 16.569 1.06697 13.1247 1.06697C7.43291 1.06697 2.80188 5.698 2.80188 11.3911C2.80188 17.0841 7.43291 21.7151 13.1247 21.7151C14.2724 21.7151 15.3956 21.5206 16.4772 21.1462C17.4279 22.4798 18.463 23.8795 19.5446 25.3062C19.6498 25.5386 19.8162 25.754 20.0376 25.9534C24.1389 31.3186 28.7601 36.9076 31.595 40.2796C32.3438 41.1716 33.3508 41.7748 34.4593 42.0232V55.4501C30.544 55.537 21.0005 56.1169 21.0005 59.7177C21.0005 63.7933 33.2309 64.0001 35.6828 64.0001C38.1348 64.0001 50.3651 63.7933 50.3651 59.7177C50.3651 56.1169 40.8216 55.537 36.9063 55.4501V41.9767C37.9965 41.6977 38.9778 41.081 39.6972 40.1805C44.0199 34.7762 47.6036 30.1085 50.4764 26.1528C50.8043 25.8825 51.0184 25.5851 51.1261 25.2572C55.8893 18.6257 58.4819 14.1672 58.8686 11.9355C58.9077 11.7581 58.931 11.577 58.931 11.3886C58.931 10.2116 58.1308 9.1569 56.7506 8.23804L60.9926 1.90508C61.367 1.34349 61.2165 0.58368 60.6561 0.206835ZM22.7184 7.59691C26.4244 6.88237 30.7471 6.49452 35.0711 6.49452C43.3678 6.49452 49.6322 7.81347 53.1804 9.16914L49.987 13.9372C46.555 14.5747 41.6658 15.0592 35.0711 15.0592C30.6468 15.0592 26.5125 14.8243 23.0035 14.3728C23.0292 14.2896 23.0377 14.2039 23.061 14.1207C23.1478 13.8075 23.2188 13.4906 23.2751 13.1713C23.2995 13.033 23.3277 12.896 23.346 12.7565C23.4072 12.305 23.4464 11.8511 23.4464 11.3911C23.4464 11.0558 23.428 10.723 23.3962 10.3902C23.3779 10.1871 23.3424 9.9889 23.3106 9.78824C23.291 9.66711 23.2787 9.54476 23.2543 9.42363C23.2053 9.17036 23.1405 8.92198 23.0732 8.67483C23.0561 8.61243 23.0426 8.54759 23.0243 8.48519C22.9447 8.21479 22.8517 7.95173 22.7514 7.69234C22.7392 7.66176 22.7306 7.62872 22.7184 7.59691ZM49.768 22.9374C49.2064 22.6438 48.4503 22.3685 47.447 22.1275L51.454 16.1457C52.6849 15.8851 53.8338 15.5743 54.8468 15.2048C53.7665 17.0878 52.1147 19.6339 49.768 22.9374ZM45.9726 24.3286C46.7618 24.4619 47.4127 24.6026 47.9058 24.7446C47.2879 24.9428 46.3911 25.1496 45.2948 25.3417L45.9726 24.3286ZM42.0598 25.7711C40.2282 25.951 38.0956 26.0709 35.6828 26.0709C30.0265 26.0709 25.1226 25.3918 22.8872 24.747C25.0223 24.1891 29.6374 23.6238 35.6828 23.6238C38.6327 23.6238 41.1948 23.7633 43.2638 23.9725L42.0598 25.7711ZM44.8176 21.654C42.5761 21.3579 39.6091 21.1756 35.6828 21.1756C26.8955 21.1756 22.7502 22.0308 20.8672 22.9962C19.8419 21.6319 18.8667 20.2983 17.9821 19.0393L17.9197 18.95C17.8573 18.8607 17.8035 18.7811 17.7423 18.6943C17.5172 18.37 17.2945 18.0482 17.0816 17.7338C16.9984 17.6114 16.9226 17.4977 16.8442 17.379C16.6326 17.0645 16.427 16.7525 16.2276 16.4442C16.175 16.3634 16.1199 16.279 16.0698 16.2007C15.8691 15.8887 15.6782 15.5841 15.4971 15.2892C16.2105 15.5339 17.0192 15.759 17.9148 15.967C18.4116 16.082 18.9303 16.1934 19.4834 16.2974L19.4711 16.3218L21.1107 16.5751L22.0026 16.7122L22.0075 16.7011C25.7662 17.2236 30.2516 17.5025 35.0698 17.5025C37.6967 17.5025 43.1133 17.4059 48.1224 16.7158L44.8176 21.654ZM13.1247 19.2669C8.78123 19.2669 5.24892 15.7333 5.24892 11.3898C5.24892 7.04633 8.78246 3.51279 13.1247 3.51279C15.9951 3.51279 18.5046 5.06177 19.881 7.36199C20.2383 7.9603 20.5124 8.59897 20.7008 9.25968C20.7118 9.29761 20.7204 9.33554 20.7302 9.37346C20.8036 9.64753 20.8586 9.92527 20.9027 10.2055C20.9137 10.2752 20.9259 10.3449 20.9345 10.4147C20.9749 10.7377 21.0018 11.0619 21.0018 11.3886C21.0018 11.7863 20.9602 12.179 20.9014 12.5681C20.8868 12.6647 20.8696 12.7614 20.8513 12.8581C20.7766 13.2447 20.6837 13.6277 20.5491 14.0033C20.1783 13.9384 19.8321 13.8736 19.5005 13.8063C19.2839 13.7622 19.0821 13.7182 18.8802 13.6741C18.7799 13.6521 18.6734 13.6301 18.5768 13.6081C18.3431 13.5542 18.1216 13.5004 17.9087 13.4453C17.861 13.4331 17.8108 13.4209 17.7631 13.4086C17.538 13.3499 17.3263 13.2912 17.1244 13.2325C17.0963 13.2239 17.0681 13.2165 17.0412 13.208C16.8394 13.148 16.6485 13.0893 16.4686 13.0293C16.4429 13.0208 16.4172 13.0122 16.3915 13.0037C16.2227 12.9474 16.0636 12.8911 15.9144 12.8348C15.8728 12.8189 15.8336 12.8042 15.7945 12.7883C15.6733 12.7418 15.5583 12.6966 15.4507 12.6513C15.3638 12.6146 15.2806 12.5779 15.2023 12.5424C15.1546 12.5204 15.1056 12.4996 15.0603 12.4775C13.8197 11.8841 13.6717 11.429 13.6704 11.4204L13.6668 11.4229C13.6643 11.4106 13.6594 11.3972 13.6594 11.3874H13.6496C13.4673 10.7952 12.8751 10.4538 12.2658 10.575C11.8302 10.6569 11.5023 10.9861 11.3592 11.3886H11.2124C11.2124 12.2536 11.5831 13.7525 14.0485 17.5845C14.0607 17.6041 14.0705 17.62 14.084 17.6408C14.1023 17.6689 14.1231 17.6995 14.1415 17.7277C14.4082 18.14 14.6908 18.5707 15.0077 19.0381C14.3923 19.1898 13.7634 19.2669 13.1247 19.2669ZM47.7272 59.7177C46.6358 60.4433 42.5223 61.553 35.684 61.553C28.8458 61.553 24.7311 60.4433 23.6409 59.7177C24.665 59.0362 28.3551 58.017 34.4605 57.8947V59.2785C34.4605 59.9551 35.0087 60.502 35.684 60.502C36.3594 60.502 36.9076 59.9551 36.9076 59.2785V57.8947C43.0129 58.0158 46.7019 59.0362 47.7272 59.7177ZM37.786 38.6536C37.2624 39.3082 36.4805 39.6911 35.6437 39.7009C35.6314 39.7009 35.6192 39.7009 35.6082 39.7009C34.7811 39.7009 34.0029 39.3387 33.4682 38.7037C31.2059 36.0132 27.7997 31.9022 24.4411 27.6345C28.5962 28.4518 34.0641 28.5179 35.6828 28.5179C37.2428 28.5179 38.8126 28.4616 40.3249 28.3625L34.9438 36.3962C34.5682 36.9578 34.7187 37.7176 35.2791 38.0944C35.4883 38.2339 35.7244 38.3012 35.9593 38.3012C36.3533 38.3012 36.7412 38.1116 36.9773 37.7592L43.4607 28.0799C44.2756 27.9832 45.0513 27.8719 45.7695 27.7459C45.9739 27.7104 46.1464 27.6712 46.3372 27.6345C43.9746 30.7961 41.1483 34.4508 37.786 38.6536ZM56.4827 11.3886C56.4827 11.8095 55.5357 12.458 53.4973 13.093L55.4109 10.2373C56.1034 10.6716 56.4827 11.0729 56.4827 11.3886Z" fill="white"/>
</g>
<defs>
<clipPath id="clip0">
<rect width="64" height="64" fill="white"/>
</clipPath>
</defs>
</svg>
