<svg width="70" height="75" viewBox="0 0 70 75" fill="none" xmlns="http://www.w3.org/2000/svg">
<path d="M4.16609 73.4018H16.6452H53.453H65.9322C67.2488 73.4018 68.2792 72.2939 68.2792 70.8782V4.46299C68.2792 3.04728 67.2488 1.93933 65.9322 1.93933H4.16609C2.84948 1.93933 1.81909 3.04728 1.81909 4.46299V70.8782C1.81909 72.2939 2.90672 73.4018 4.16609 73.4018ZM55.8 6.98664H63.5852V18.5585H55.8V6.98664ZM55.8 23.6058H63.5852V35.1777H61.1237H55.7428V23.6058H55.8ZM55.8573 40.225H61.2382H63.6997V51.7969H55.9145V40.225H55.8573ZM55.8 56.8442H63.5852V68.4161H55.8V56.8442ZM18.9922 6.98664H51.106V35.1777H18.9922V6.98664ZM18.9922 40.225H51.106V68.4161H18.9922V40.225ZM6.51309 6.98664H14.2982V18.5585H6.51309V6.98664ZM6.51309 23.6058H14.2982V35.1777H6.51309V23.6058ZM6.51309 40.225H14.2982V51.7969H6.51309V40.225ZM6.51309 56.8442H14.2982V68.4161H6.51309V56.8442Z" fill="white" stroke="#F54123" stroke-width="2.5"/>
</svg>
