<svg width="76" height="76" viewBox="0 0 76 76" fill="none" xmlns="http://www.w3.org/2000/svg">
<g clip-path="url(#clip0)">
<path d="M69.1017 -0.147949H6.14768C2.6722 -0.143915 -0.143915 2.6722 -0.147949 6.14768V69.1017C-0.143915 72.5771 2.6722 75.3933 6.14768 75.3973H69.1017C72.5771 75.3933 75.3933 72.5771 75.3973 69.1017V6.14768C75.3933 2.6722 72.5771 -0.143915 69.1017 -0.147949V-0.147949ZM6.14768 2.37019H69.1017C71.1881 2.37019 72.8792 4.06124 72.8792 6.14768V9.9246H2.37019V6.14768C2.37019 4.06124 4.06124 2.37019 6.14768 2.37019ZM69.1017 72.8792H6.14768C4.06124 72.8792 2.37019 71.1881 2.37019 69.1017V12.4427H72.8792V69.1017C72.8792 71.1881 71.1881 72.8792 69.1017 72.8792Z" fill="white"/>
<path d="M6.14819 4.88867H8.66633V7.40681H6.14819V4.88867Z" fill="white"/>
<path d="M11.1843 4.88867H13.7025V7.40681H11.1843V4.88867Z" fill="white"/>
<path d="M16.2207 4.88867H18.7388V7.40681H16.2207V4.88867Z" fill="white"/>
<path d="M52.9708 25.9987C44.8948 18.5538 32.6413 17.9762 23.9013 24.6286C23.3411 25.058 22.797 25.5099 22.2742 25.9987C13.0409 34.4418 12.4 48.772 20.8431 58.0053C28.7751 66.6796 42.0228 67.8468 51.3495 60.6941C51.9097 60.2647 52.4533 59.8128 52.976 59.3241C62.1777 50.8671 62.7817 36.5513 54.3241 27.3497C53.8942 26.8811 53.444 26.4315 52.976 26.001L52.9708 25.9987ZM52.0354 56.6878C50.9288 55.7696 49.7374 54.9592 48.4769 54.2676C49.5322 50.9166 50.1063 47.4331 50.1818 43.9207H57.7051C57.4008 48.7166 55.3893 53.2457 52.0354 56.6878ZM49.9841 58.55C49.7904 58.7022 49.5905 58.8422 49.391 58.9869C49.104 59.1944 48.8158 59.3984 48.5201 59.5898C48.3075 59.7269 48.0907 59.8555 47.874 59.9851C47.5772 60.1615 47.2787 60.3315 46.9726 60.4889C46.7484 60.607 46.5207 60.7206 46.2913 60.8301C45.983 60.9788 45.6694 61.1171 45.3536 61.2491C45.1392 61.3373 44.9242 61.4255 44.7075 61.501C45.8931 60.0249 46.8631 58.3869 47.5882 56.637C48.4954 57.1517 49.3605 57.7367 50.1755 58.3863C50.1103 58.4416 50.0498 58.4993 49.9841 58.55ZM28.9578 60.8312C28.7307 60.7229 28.5065 60.6105 28.284 60.4941C27.9756 60.3315 27.6719 60.1592 27.3722 59.9805C27.1595 59.8543 26.9468 59.7287 26.7428 59.5926C26.4431 59.3984 26.1509 59.1909 25.8615 58.9805C25.665 58.8382 25.4673 58.6999 25.2759 58.55C25.2102 58.4999 25.1503 58.4416 25.0846 58.3903C25.8967 57.7396 26.7584 57.1535 27.6621 56.6376C28.3866 58.3886 29.3566 60.0272 30.5428 61.505C30.3278 61.4243 30.1134 61.3379 29.9007 61.2531C29.582 61.12 29.2661 60.9799 28.9537 60.8312H28.9578ZM23.2149 28.6349C24.3215 29.5531 25.5128 30.3635 26.7733 31.0551C25.718 34.4061 25.144 37.8902 25.0684 41.4026H17.5452C17.8495 36.6061 19.861 32.077 23.2149 28.6349ZM25.2661 26.7733C25.4598 26.6206 25.6598 26.4811 25.8592 26.3358C26.1463 26.1283 26.4344 25.9243 26.7313 25.733C26.9428 25.5958 27.1595 25.4673 27.3751 25.3387C27.6719 25.1629 27.9716 24.9917 28.2776 24.8356C28.5019 24.7168 28.7295 24.6039 28.9589 24.4943C29.2673 24.3456 29.5808 24.2067 29.8967 24.0748C30.1111 23.9866 30.326 23.8984 30.5428 23.8229C29.3572 25.299 28.3872 26.9364 27.6621 28.6857C26.7549 28.1716 25.8898 27.5865 25.0742 26.937C25.1399 26.8811 25.2004 26.8234 25.2661 26.7733ZM46.2925 24.4915C46.5196 24.5998 46.7438 24.7122 46.9663 24.8292C47.2746 24.9912 47.5784 25.1641 47.8781 25.3428C48.0907 25.4684 48.3034 25.5946 48.5075 25.7306C48.8072 25.9243 49.0994 26.1318 49.3887 26.3422C49.5853 26.4845 49.783 26.6229 49.9743 26.7727C50.04 26.8234 50.1 26.8811 50.1657 26.9329C49.3536 27.5837 48.4919 28.1692 47.5882 28.6857C46.8637 26.9347 45.8936 25.2955 44.7075 23.8177C44.9225 23.8984 45.1369 23.9854 45.3496 24.0696C45.6683 24.2033 45.9841 24.3428 46.2965 24.4915H46.2925ZM36.3663 31.277C34.1583 31.1404 31.9889 30.6395 29.9445 29.7946C31.5474 25.9975 33.824 23.367 36.3663 22.6995V31.277ZM36.3663 33.7951V41.4026H27.5854C27.673 38.2712 28.1814 35.1657 29.0961 32.1692C31.4131 33.1087 33.8695 33.6557 36.3663 33.7888V33.7951ZM36.3663 43.9207V51.5345C33.8678 51.6665 31.4085 52.214 29.0897 53.1535C28.1774 50.157 27.6713 47.0515 27.5854 43.9207H36.3663ZM36.3663 54.0463V62.6232C33.828 61.9557 31.5514 59.3258 29.9445 55.5281C31.9889 54.6832 34.1583 54.1823 36.3663 54.0463ZM38.8839 54.0463C41.092 54.1823 43.2614 54.6832 45.3058 55.5281C43.7029 59.3258 41.4262 61.9494 38.8839 62.6232V54.0463ZM38.8839 51.5281V43.9207H47.6648C47.5789 47.0515 47.0729 50.157 46.1605 53.1535C43.8418 52.214 41.3824 51.6665 38.8839 51.5345V51.5281ZM38.8839 41.4026V33.7888C41.3824 33.6562 43.8418 33.1093 46.1605 32.1692C47.0729 35.1657 47.5789 38.2712 47.6648 41.402H38.8839V41.4026ZM38.8839 31.277V22.7001C41.4222 23.367 43.6989 25.9975 45.3058 29.7952C43.2614 30.6395 41.092 31.1404 38.8839 31.277ZM25.0684 43.9207C25.144 47.4331 25.718 50.9166 26.7733 54.2676C25.5123 54.9592 24.3209 55.7696 23.2149 56.6878C19.8604 53.2463 17.8489 48.7172 17.5452 43.9207H25.0684ZM50.1818 41.4026C50.1063 37.8902 49.5322 34.4061 48.4769 31.0551C49.738 30.3635 50.9293 29.5531 52.0354 28.6349C55.3898 32.0764 57.4013 36.6061 57.7051 41.402H50.1818V41.4026Z" fill="white"/>
</g>
<defs>
<clipPath id="clip0">
<rect width="75.5452" height="75.5452" fill="white"/>
</clipPath>
</defs>
</svg>
