<svg width="126" height="87" viewBox="0 0 126 87" fill="none" xmlns="http://www.w3.org/2000/svg">
<path d="M91.1037 1.5C90.8953 1.5 90.5693 1.58579 90.1098 1.9972C89.6412 2.41672 89.1173 3.10513 88.5712 4.11561C87.4801 6.13466 86.4506 9.15531 85.5682 13.0156C83.809 20.712 82.7073 31.4188 82.7073 43.2968C82.7073 55.1748 83.809 65.8816 85.5682 73.578C86.4505 77.4383 87.4801 80.4589 88.5712 82.478C89.1173 83.4885 89.6412 84.1769 90.1098 84.5964C90.5693 85.0078 90.8953 85.0936 91.1037 85.0936C91.3121 85.0936 91.6381 85.0078 92.0977 84.5964C92.5663 84.1769 93.0901 83.4885 93.6362 82.478C94.7273 80.4589 95.7569 77.4383 96.6392 73.578C98.3984 65.8816 99.5001 55.1748 99.5001 43.2968C99.5001 31.4188 98.3984 20.712 96.6393 13.0156C95.7569 9.15531 94.7273 6.13466 93.6362 4.11561C93.0902 3.10513 92.5663 2.41672 92.0977 1.9972C91.6382 1.58579 91.3122 1.5 91.1037 1.5Z" fill="#E5E7DE" stroke="#0B3536" stroke-width="3"/>
<mask id="mask0" mask-type="alpha" maskUnits="userSpaceOnUse" x="81" y="0" width="21" height="87">
<path d="M91.1037 1.5C90.8953 1.5 90.5693 1.58579 90.1098 1.9972C89.6412 2.41672 89.1173 3.10513 88.5712 4.11561C87.4801 6.13466 86.4506 9.15531 85.5682 13.0156C83.809 20.712 82.7073 31.4188 82.7073 43.2968C82.7073 55.1748 83.809 65.8816 85.5682 73.578C86.4505 77.4383 87.4801 80.4589 88.5712 82.478C89.1173 83.4885 89.6412 84.1769 90.1098 84.5964C90.5693 85.0078 90.8953 85.0936 91.1037 85.0936C91.3121 85.0936 91.6381 85.0078 92.0977 84.5964C92.5663 84.1769 93.0901 83.4885 93.6362 82.478C94.7273 80.4589 95.7569 77.4383 96.6392 73.578C98.3984 65.8816 99.5001 55.1748 99.5001 43.2968C99.5001 31.4188 98.3984 20.712 96.6393 13.0156C95.7569 9.15531 94.7273 6.13466 93.6362 4.11561C93.0902 3.10513 92.5663 2.41672 92.0977 1.9972C91.6382 1.58579 91.3122 1.5 91.1037 1.5Z" fill="white" stroke="#0B3536" stroke-width="3"/>
</mask>
<g mask="url(#mask0)">
<ellipse rx="43.2968" ry="9.89641" transform="matrix(3.93403e-07 -1 -1 -3.93403e-07 97.9881 43.2968)" fill="#0B3536"/>
</g>
<mask id="path-4-inside-1" fill="white">
<path fill-rule="evenodd" clip-rule="evenodd" d="M58 29C56.8954 29 56 29.8954 56 31L56 58.6574C56 59.7619 56.8954 60.6574 58 60.6574L93.6411 60.6574C93.809 60.6574 93.9721 60.6367 94.128 60.5977C94.3752 60.5359 94.643 60.6574 94.8979 60.6574C96.1293 60.6574 97.1277 53.5707 97.1277 44.8288C97.1277 36.0868 96.1294 29.0001 94.8979 29.0001C94.6431 29.0001 94.3754 29.1216 94.1282 29.0597C93.9723 29.0207 93.8091 29 93.6411 29L58 29Z"/>
</mask>
<path fill-rule="evenodd" clip-rule="evenodd" d="M58 29C56.8954 29 56 29.8954 56 31L56 58.6574C56 59.7619 56.8954 60.6574 58 60.6574L93.6411 60.6574C93.809 60.6574 93.9721 60.6367 94.128 60.5977C94.3752 60.5359 94.643 60.6574 94.8979 60.6574C96.1293 60.6574 97.1277 53.5707 97.1277 44.8288C97.1277 36.0868 96.1294 29.0001 94.8979 29.0001C94.6431 29.0001 94.3754 29.1216 94.1282 29.0597C93.9723 29.0207 93.8091 29 93.6411 29L58 29Z" fill="#E5E7DE"/>
<path d="M58 60.6574L58 57.6574L58 60.6574ZM93.6411 60.6574L93.6411 63.6574L93.6411 60.6574ZM94.128 60.5977L93.4 57.6874L94.128 60.5977ZM59 31C59 31.5523 58.5523 32 58 32L58 26C55.2386 26 53 28.2386 53 31L59 31ZM59 58.6574L59 31L53 31L53 58.6574L59 58.6574ZM58 57.6574C58.5523 57.6574 59 58.1051 59 58.6574L53 58.6574C53 61.4188 55.2386 63.6574 58 63.6574L58 57.6574ZM93.6411 57.6574L58 57.6574L58 63.6574L93.6411 63.6574L93.6411 57.6574ZM93.4 57.6874C93.4803 57.6673 93.5616 57.6574 93.6411 57.6574L93.6411 63.6574C94.0564 63.6574 94.464 63.6061 94.856 63.508L93.4 57.6874ZM94.1277 44.8288C94.1277 49.1048 93.8825 52.9155 93.5039 55.6028C93.3114 56.969 93.1014 57.9196 92.9195 58.4656C92.8219 58.7586 92.7879 58.7629 92.8762 58.6347C92.8834 58.6243 93.5159 57.6574 94.8979 57.6574L94.8978 63.6574C96.5877 63.6574 97.5208 62.4691 97.8183 62.037C98.1968 61.4871 98.4429 60.8695 98.6121 60.3615C98.9638 59.3056 99.2342 57.9381 99.4452 56.4398C99.8737 53.3983 100.128 49.2947 100.128 44.8288L94.1277 44.8288ZM94.8979 32.0001C93.5159 32.0001 92.8834 31.0332 92.8762 31.0228C92.7879 30.8946 92.8219 30.8989 92.9195 31.1919C93.1014 31.7379 93.3115 32.6885 93.5039 34.0547C93.8825 36.742 94.1277 40.5527 94.1277 44.8288L100.128 44.8288C100.128 40.3629 99.8737 36.2592 99.4452 33.2177C99.2342 31.7194 98.9638 30.3519 98.6121 29.296C98.4429 28.788 98.1969 28.1704 97.8183 27.6205C97.5208 27.1884 96.5877 26.0001 94.8979 26.0001L94.8979 32.0001ZM93.6411 32C93.5616 32 93.4803 31.9901 93.3999 31.97L94.8564 26.1495C94.4643 26.0513 94.0566 26 93.6411 26L93.6411 32ZM58 32L93.6411 32L93.6411 26L58 26L58 32ZM94.8979 26.0001C94.7478 26.0001 94.6148 26.009 94.5048 26.0199C94.3953 26.0308 94.3003 26.0446 94.2282 26.0562C94.1577 26.0675 94.0952 26.0791 94.0595 26.0857C94.0355 26.0902 94.0293 26.0914 94.0138 26.0942C94.0024 26.0964 93.9967 26.0974 93.9939 26.0978C93.9874 26.099 94.0044 26.0959 94.0345 26.092C94.0653 26.0881 94.1194 26.0822 94.1903 26.0792C94.3315 26.0732 94.5687 26.0775 94.8564 26.1495L93.3999 31.97C93.8113 32.0729 94.1746 32.0852 94.4434 32.0738C94.7029 32.0629 94.9185 32.0272 95.0264 32.0083C95.0797 31.999 95.1366 31.9883 95.1556 31.9848C95.1848 31.9793 95.1872 31.9791 95.1815 31.98C95.1748 31.9811 95.0621 32.0001 94.8979 32.0001L94.8979 26.0001ZM94.856 63.508C94.5683 63.58 94.3311 63.5842 94.1899 63.5783C94.1191 63.5753 94.0649 63.5693 94.0342 63.5654C94.0041 63.5616 93.9871 63.5585 93.9936 63.5596C93.9964 63.5601 94.0021 63.5611 94.0135 63.5632C94.029 63.5661 94.0352 63.5672 94.0592 63.5717C94.095 63.5784 94.1575 63.5899 94.228 63.6013C94.3001 63.6129 94.3951 63.6267 94.5047 63.6376C94.6147 63.6485 94.7478 63.6574 94.8978 63.6574L94.8979 57.6574C95.0622 57.6574 95.1748 57.6765 95.1816 57.6775C95.1873 57.6785 95.1849 57.6782 95.1557 57.6728C95.1367 57.6692 95.0798 57.6585 95.0265 57.6492C94.9186 57.6303 94.7031 57.5946 94.4436 57.5836C94.1747 57.5723 93.8114 57.5845 93.4 57.6874L94.856 63.508Z" fill="#0B3536" mask="url(#path-4-inside-1)"/>
<g clip-path="url(#clip0)">
<path d="M41.0777 15.9738L41.0779 15.9745L42.8044 20.6215C44.5545 25.3327 47.1026 29.6534 50.3784 33.4642L57.7349 33.4642C58.475 33.4642 59.075 34.0642 59.075 34.8043L59.075 53.4191C59.075 54.1592 58.475 54.7591 57.7349 54.7591L50.6946 54.7591C47.7537 58.1659 43.4057 60.3263 38.5621 60.3263L27.6042 60.3263L25.83 60.3263L24.0559 60.3263C21.1895 60.3263 18.8579 57.9947 18.8579 55.1283C18.8579 54.0459 19.1916 53.0404 19.76 52.2073C17.8858 51.4216 16.5648 49.5693 16.5648 47.4125C16.5648 45.8826 17.23 44.5061 18.2849 43.5544C17.23 42.6025 16.5648 41.226 16.5648 39.6963C16.5648 38.7768 16.8057 37.9126 17.2263 37.1625L4.93649 37.1625C2.173 37.1625 -0.0750011 34.9147 -0.0750012 32.1512C-0.0750014 29.3877 2.17299 27.1396 4.93649 27.1397L34.3419 27.1397L31.428 19.4604L41.0777 15.9738ZM41.0777 15.9738C40.6053 14.7385 39.5872 13.7062 38.2868 13.1383C36.9977 12.5751 35.5517 12.5209 34.3195 12.9924C31.7387 13.9796 30.4424 16.8826 31.428 19.4603L41.0777 15.9738ZM38.5622 57.646L32.1496 57.646C32.5649 56.8995 32.8024 56.0413 32.8024 55.1282C32.8024 53.5685 32.1113 52.1679 31.0203 51.2146C32.0393 50.2652 32.6782 48.9121 32.6782 47.4123C32.6782 45.8826 32.013 44.5061 30.9581 43.5542C32.013 42.6025 32.6782 41.226 32.6782 39.6961C32.6782 36.8298 30.3466 34.4981 27.4802 34.4981L24.36 34.4981C24.2971 34.4888 24.2317 34.4822 24.1638 34.4822L4.93649 34.4822C3.65102 34.4822 2.60514 33.4363 2.60514 32.1511C2.60514 30.8658 3.65103 29.8197 4.93649 29.8197L36.2837 29.8197C36.7242 29.8197 37.1365 29.6032 37.3866 29.2408C37.6368 28.8782 37.6929 28.4163 37.5366 28.0043L37.4665 28.0309L37.5366 28.0043L33.9326 18.5061L33.9326 18.5059C33.4733 17.3058 34.0764 15.9548 35.2771 15.4956C35.8539 15.2749 36.5602 15.3088 37.2144 15.5946L37.2444 15.5259L37.2144 15.5946C37.865 15.8786 38.3587 16.3676 38.57 16.9195C38.57 16.9196 38.5701 16.9197 38.5701 16.9198L40.292 21.5546C42.1587 26.5791 44.8788 31.1859 48.3771 35.2472L48.7491 35.6789L48.7489 35.6791L48.7522 35.6824C50.787 38.086 51.9078 41.1459 51.9078 44.3004C51.9078 51.6591 45.9209 57.646 38.5622 57.646ZM19.245 39.6963C19.245 38.308 20.3747 37.1784 21.763 37.1784L27.48 37.1784C28.8683 37.1784 29.9979 38.308 29.9979 39.6963C29.9979 41.0846 28.8683 42.2143 27.48 42.2143L21.763 42.2143C20.3747 42.2143 19.245 41.0846 19.245 39.6963ZM21.763 49.9302C20.3747 49.9302 19.245 48.8006 19.245 47.4123C19.245 46.024 20.3747 44.8943 21.763 44.8943L27.48 44.8943C28.8683 44.8943 29.9979 46.024 29.9979 47.4123C29.9979 48.8006 28.8683 49.9302 27.48 49.9302L21.8872 49.9302L21.763 49.9302ZM24.0559 57.646C22.6676 57.646 21.538 56.5165 21.538 55.1282C21.538 53.7399 22.6676 52.6101 24.0559 52.6101L27.48 52.6101L27.6044 52.6101C28.9927 52.6101 30.1222 53.7399 30.1222 55.1282C30.1222 56.5165 28.9927 57.646 27.6044 57.646L25.8302 57.646L24.0559 57.646ZM56.3949 52.079L52.5696 52.079C53.8546 49.7742 54.588 47.1214 54.588 44.3006C54.588 41.4164 53.8047 38.5995 52.3537 36.1443L56.3949 36.1443L56.3949 52.079Z" fill="#0B3536" stroke="#0B3536" stroke-width="0.15"/>
</g>
<defs>
<clipPath id="clip0">
<rect width="59" height="59" fill="white" transform="translate(0 66) rotate(-90)"/>
</clipPath>
</defs>
</svg>
