<svg width="47" height="49" viewBox="0 0 47 49" fill="none" xmlns="http://www.w3.org/2000/svg">
<path d="M29.5331 23.8558C29.2921 23.8558 29.0534 23.8717 28.8183 23.9034C28.8499 23.6683 28.8658 23.4295 28.8658 23.1886C28.8658 20.872 27.4073 18.8388 25.2363 18.1295C24.237 17.8027 22.7111 17.432 20.9353 17.432H20.9016C21.497 16.4471 22.3361 15.1448 23.3568 13.7888C25.3741 11.1088 25.1878 8.44042 22.858 6.65123C21.8046 5.84207 19.7686 4.9602 16.9869 6.85598C17.0129 6.68221 17.0402 6.50122 17.0705 6.30456C17.5924 2.906 15.4272 0.909766 13.1947 0.493049C10.6979 0.0259006 8.51743 2.04282 7.92894 4.17781C7.6741 5.10248 7.32531 6.57346 6.95179 8.39362C6.41139 8.21903 5.72585 8.12763 4.80066 8.20372C2.85863 8.36397 0.529966 9.7858 0.358045 13.2663C0.150577 17.4742 2.31313 28.9132 4.6958 36.1086C5.00047 37.263 5.41852 38.4238 5.97172 39.5856C8.55395 45.0089 12.8868 47.9224 19.2174 48.493C19.6431 48.5313 20.1166 48.5562 20.6279 48.5562C24.0312 48.5562 29.0958 47.4457 32.6754 41.7517C35.0859 37.9174 35.918 31.6558 34.5696 27.4964C33.8634 25.3189 31.8395 23.8558 29.5331 23.8558ZM10.0213 4.75924C10.3479 3.57319 11.6054 2.4129 12.7979 2.63572C13.9817 2.85665 15.2491 3.86303 14.9252 5.97252C14.6338 7.86995 14.5314 8.73185 14.4951 9.10837C12.6202 11.0938 9.73103 14.5093 7.46612 18.7608C8.1765 12.7298 9.39183 7.04225 10.0213 4.75924ZM4.77026 25.5846C4.65714 26.0307 4.55484 26.4808 4.46635 26.9353C3.24204 21.4666 2.4007 15.9183 2.52626 13.3739C2.65473 10.769 4.43565 10.4204 4.97834 10.3757C5.78103 10.3094 6.21565 10.4067 6.52752 10.5658C5.7183 14.9138 4.91306 20.508 4.76572 25.5202C4.76506 25.5422 4.7696 25.5629 4.77026 25.5846ZM30.8396 40.5885C27.5139 45.8787 22.7883 46.6259 19.4115 46.3225C16.0316 46.0178 11.2628 44.9475 8.26917 39.3159C8.2506 39.2369 8.22531 39.1586 8.18797 39.0827C7.73214 38.1548 7.26334 36.9487 6.79986 35.5628C3.78846 24.1262 13.5363 13.1301 16.832 9.82153C18.0982 8.5506 19.226 7.91321 20.2024 7.91321C20.6855 7.91321 21.1317 8.06942 21.5392 8.38205C22.0354 8.76323 23.5456 9.92306 21.6248 12.4748C19.9107 14.7524 18.7002 16.8523 18.2126 17.7397C15.5045 18.3722 12.574 20.1041 10.1613 24.0419C9.84716 24.5544 10.0066 25.2256 10.5172 25.5408C11.0275 25.8562 11.6961 25.6961 12.0103 25.1835C16.0454 18.5976 21.6078 19.2346 24.5642 20.2016C26.036 20.6825 26.6949 22.0482 26.6949 23.1885C26.6949 24.0283 26.3652 24.8227 25.7687 25.4235C24.9361 26.2573 23.701 26.5661 22.6222 26.211C20.5981 25.5444 18.1569 26.2525 16.4016 28.0142C13.8766 30.5493 13.5194 34.3358 15.5882 36.6342C16.878 38.0669 18.8369 38.9524 20.8284 39.0031C22.4098 39.0388 23.7907 38.5576 24.7088 37.6359C26.9277 35.4086 27.217 32.2565 26.5196 30.1202C26.165 29.0355 26.4719 27.7975 27.3027 26.9654C27.9005 26.3654 28.6925 26.0349 29.5331 26.0349C30.918 26.0349 32.0847 26.8734 32.5053 28.1708C33.6573 31.7245 32.9101 37.2951 30.8396 40.5885ZM24.457 30.7996C24.9475 32.3019 24.7411 34.5218 23.1741 36.095C22.6876 36.5834 21.8566 36.8488 20.8833 36.8245C19.4748 36.7888 18.0976 36.1714 17.199 35.1731C15.7746 33.5907 16.4729 31.0248 17.9367 29.5552C18.8434 28.645 19.9807 28.1389 21.0273 28.1389C21.3446 28.1389 21.6539 28.1855 21.9456 28.2817C22.7003 28.5303 23.4836 28.5973 24.2423 28.4959C24.142 29.2569 24.2094 30.0422 24.457 30.7996Z" fill="#0B3536"/>
<path d="M28.3801 13.2633C28.5218 13.3257 28.6695 13.355 28.8147 13.355C29.2327 13.355 29.6313 13.1111 29.8096 12.7021L32.7517 5.95296C32.9922 5.40154 32.7418 4.75903 32.1927 4.51793C31.6435 4.27616 31.0035 4.52817 30.7633 5.07913L27.8211 11.8283C27.5807 12.3797 27.8311 13.0221 28.3801 13.2633Z" fill="#0B3536"/>
<path d="M42.1663 12.4905C41.8133 12.0038 41.1343 11.8972 40.6499 12.2507L34.7732 16.5449C34.2886 16.8993 34.1815 17.5807 34.5343 18.0672C34.7469 18.3603 35.0774 18.5156 35.4127 18.5156C35.6343 18.5156 35.8579 18.4477 36.0506 18.3071L41.9273 14.0128C42.4119 13.6585 42.519 12.977 42.1663 12.4905Z" fill="#0B3536"/>
<path d="M46.2678 24.4527C46.18 23.8577 45.6291 23.4459 45.0349 23.5351L38.7329 24.4747C38.14 24.563 37.7306 25.1172 37.8188 25.7124C37.8988 26.2534 38.3619 26.6422 38.8911 26.6422C38.9441 26.6422 38.9977 26.6382 39.0518 26.6301L45.3537 25.6905C45.9467 25.6022 46.356 25.048 46.2678 24.4527Z" fill="#0B3536"/>
</svg>
