<svg width="79" height="79" viewBox="0 0 79 79" fill="none" xmlns="http://www.w3.org/2000/svg">
<path d="M39.5 0.642883C18.1285 0.642883 0.642822 18.1286 0.642822 39.5C0.642822 60.8715 18.1285 78.3572 39.5 78.3572C60.8714 78.3572 78.3571 60.8715 78.3571 39.5C78.3571 18.1286 60.8714 0.642883 39.5 0.642883ZM75.4428 45.2072L70.7071 37.4357L73.9857 27.8429C75.2 31.4857 75.9285 35.3715 75.9285 39.5C75.9285 41.4429 75.8071 43.3857 75.4428 45.2072ZM66.3357 64.15C66.2142 64.15 65.9714 64.15 65.85 64.15L54.0714 65.9715C54.0714 65.85 53.95 65.7286 53.95 65.6072L47.2714 54.4357L58.0785 37.8H68.2785C68.2785 37.9215 68.2785 38.0429 68.4 38.1643L74.7142 48.7286C73.2571 54.5572 70.2214 59.7786 66.3357 64.15ZM54.0714 68.5215L63.4214 67.0643C59.4142 70.5857 54.5571 73.2572 49.2142 74.7143L54.0714 68.5215ZM15.9428 11.6929C22.1357 6.47146 30.0285 3.31431 38.65 3.07145C38.7714 3.19288 38.7714 3.43574 38.8928 3.55717L45.5714 9.87146L42.9 19.8286L25.6571 26.5072C25.5357 26.5072 25.5357 26.3857 25.4142 26.3857L14.6071 20.6786L15.9428 11.6929ZM47.2714 8.05003L42.05 3.19288C46.7857 3.55717 51.2785 4.77145 55.4071 6.71431L47.2714 8.05003ZM27.2357 47.6357L26.2642 28.6929L43.8714 21.8929L55.7714 36.5857L45.5714 52.6143L27.2357 47.6357ZM72.65 24.4429C72.65 24.5643 72.5285 24.5643 72.5285 24.6857L68.8857 35.4929H57.9571L45.45 19.95L48 10.3572L58.0785 8.65717C58.3214 8.65717 58.4428 8.53574 58.6857 8.41431C64.7571 12.3 69.6142 17.8857 72.65 24.4429ZM13.15 14.3643L12.1785 21.1643L5.74282 26.0215C7.44282 21.65 9.99282 17.6429 13.15 14.3643ZM4.40711 29.9072C4.40711 29.9072 4.52854 29.9072 4.52854 29.7857L13.8785 22.7429L23.8357 27.9643L24.9285 48.7286C24.9285 48.7286 24.9285 48.7286 24.9285 48.85L15.5785 58.0786C15.4571 58.2 15.4571 58.2 15.4571 58.3215L6.47139 54.4357H6.34996C4.28568 49.8215 3.07139 44.8429 3.07139 39.5C3.07139 36.2215 3.55711 32.9429 4.40711 29.9072ZM8.04996 57.8357L14.6071 60.6286L19.5857 69.9786C14.85 66.9429 10.8428 62.6929 8.04996 57.8357ZM23.4714 72.2857C23.4714 72.1643 23.4714 72.1643 23.35 72.0429L16.9142 60.0215C17.0357 60.0215 17.1571 59.9 17.1571 59.9L26.8714 50.3072L44.4785 55.0429L51.6428 67.0643C51.6428 67.1857 51.7642 67.3072 51.8857 67.3072L45.3285 75.6857C43.5071 75.8072 41.5642 75.9286 39.5 75.9286C33.7928 75.9286 28.3285 74.5929 23.4714 72.2857Z" fill="#0B3536" stroke="#0B3536" stroke-width="0.5" stroke-miterlimit="10"/>
</svg>
