<svg width="104" height="87" viewBox="0 0 104 87" fill="none" xmlns="http://www.w3.org/2000/svg">
<path d="M94.1037 1.5C93.8953 1.5 93.5693 1.58579 93.1098 1.99721C92.6412 2.41673 92.1173 3.10513 91.5712 4.11562C90.4801 6.13467 89.4506 9.15531 88.5682 13.0156C86.809 20.712 85.7073 31.4188 85.7073 43.2968C85.7073 55.1748 86.809 65.8816 88.5682 73.578C89.4505 77.4383 90.4801 80.4589 91.5712 82.478C92.1173 83.4885 92.6412 84.1769 93.1098 84.5964C93.5693 85.0078 93.8953 85.0936 94.1037 85.0936C94.3121 85.0936 94.6381 85.0078 95.0977 84.5964C95.5663 84.1769 96.0901 83.4885 96.6362 82.478C97.7273 80.4589 98.7569 77.4383 99.6392 73.578C101.398 65.8816 102.5 55.1748 102.5 43.2968C102.5 31.4188 101.398 20.712 99.6393 13.0156C98.7569 9.15531 97.7273 6.13467 96.6362 4.11562C96.0902 3.10513 95.5663 2.41673 95.0977 1.99721C94.6382 1.58579 94.3122 1.5 94.1037 1.5Z" fill="#E5E7DE" stroke="#0B3536" stroke-width="3"/>
<mask id="mask0" mask-type="alpha" maskUnits="userSpaceOnUse" x="84" y="0" width="21" height="87">
<path d="M94.1037 1.5C93.8953 1.5 93.5693 1.58579 93.1098 1.99721C92.6412 2.41673 92.1173 3.10513 91.5712 4.11562C90.4801 6.13467 89.4506 9.15531 88.5682 13.0156C86.809 20.712 85.7073 31.4188 85.7073 43.2968C85.7073 55.1748 86.809 65.8816 88.5682 73.578C89.4505 77.4383 90.4801 80.4589 91.5712 82.478C92.1173 83.4885 92.6412 84.1769 93.1098 84.5964C93.5693 85.0078 93.8953 85.0936 94.1037 85.0936C94.3121 85.0936 94.6381 85.0078 95.0977 84.5964C95.5663 84.1769 96.0901 83.4885 96.6362 82.478C97.7273 80.4589 98.7569 77.4383 99.6392 73.578C101.398 65.8816 102.5 55.1748 102.5 43.2968C102.5 31.4188 101.398 20.712 99.6393 13.0156C98.7569 9.15531 97.7273 6.13467 96.6362 4.11562C96.0902 3.10513 95.5663 2.41673 95.0977 1.99721C94.6382 1.58579 94.3122 1.5 94.1037 1.5Z" fill="white" stroke="#0B3536" stroke-width="3"/>
</mask>
<g mask="url(#mask0)">
<ellipse rx="43.2968" ry="9.89641" transform="matrix(3.93403e-07 -1 -1 -3.93403e-07 100.988 43.2968)" fill="#0B3536"/>
</g>
<mask id="path-4-inside-1" fill="white">
<path fill-rule="evenodd" clip-rule="evenodd" d="M61 29C59.8954 29 59 29.8954 59 31L59 59C59 60.1046 59.8954 61 61 61L97 61C98.1046 61 99 60.1046 99 59L99 58.8355C99 58.6737 99.02 58.5131 99.0565 58.3555C99.6988 55.5772 100.128 50.5585 100.128 44.8288C100.128 38.9774 99.6804 33.8676 99.0153 31.1282C99.005 31.0858 99 31.0436 99 31V31C99 30.6365 98.903 30.2957 98.7335 30.0019C98.6526 29.8616 98.5698 29.7217 98.4966 29.5772C98.3061 29.2011 98.1053 29.0001 97.8979 29.0001V29.0001C97.7213 29.0001 97.5393 29.0655 97.3657 29.0334C97.2471 29.0115 97.1249 29 97 29L61 29Z"/>
</mask>
<path fill-rule="evenodd" clip-rule="evenodd" d="M61 29C59.8954 29 59 29.8954 59 31L59 59C59 60.1046 59.8954 61 61 61L97 61C98.1046 61 99 60.1046 99 59L99 58.8355C99 58.6737 99.02 58.5131 99.0565 58.3555C99.6988 55.5772 100.128 50.5585 100.128 44.8288C100.128 38.9774 99.6804 33.8676 99.0153 31.1282C99.005 31.0858 99 31.0436 99 31V31C99 30.6365 98.903 30.2957 98.7335 30.0019C98.6526 29.8616 98.5698 29.7217 98.4966 29.5772C98.3061 29.2011 98.1053 29.0001 97.8979 29.0001V29.0001C97.7213 29.0001 97.5393 29.0655 97.3657 29.0334C97.2471 29.0115 97.1249 29 97 29L61 29Z" fill="#E5E7DE"/>
<path d="M59 31L56 31L59 31ZM61 29L61 32L61 29ZM59 59L62 59L59 59ZM61 61L61 58L61 61ZM97 61L97 64L97 61ZM99 31L102 31L99 31ZM97 29L97 26L97 29ZM97.3657 29.0334L97.9108 26.0833L97.3657 29.0334ZM98.7335 30.0019L96.1351 31.5012L98.7335 30.0019ZM98.4966 29.5772L95.8204 30.9329L98.4966 29.5772ZM99.0153 31.1282L101.931 30.4204L99.0153 31.1282ZM99 31L102 31L99 31ZM99.0565 58.3555L96.1336 57.6797L99.0565 58.3555ZM62 31C62 31.5523 61.5523 32 61 32L61 26C58.2386 26 56 28.2386 56 31L62 31ZM62 59L62 31L56 31L56 59L62 59ZM61 58C61.5523 58 62 58.4477 62 59L56 59C56 61.7614 58.2386 64 61 64L61 58ZM97 58L61 58L61 64L97 64L97 58ZM96 59C96 58.4477 96.4477 58 97 58L97 64C99.7614 64 102 61.7614 102 59L96 59ZM96 58.8355L96 59L102 59L102 58.8355L96 58.8355ZM97.1277 44.8288C97.1277 50.4825 96.6991 55.2334 96.1336 57.6797L101.979 59.0312C102.698 55.921 103.128 50.6345 103.128 44.8288L97.1277 44.8288ZM96.1 31.836C96.6795 34.223 97.1277 39.0472 97.1277 44.8288L103.128 44.8288C103.128 38.9077 102.681 33.5123 101.931 30.4204L96.1 31.836ZM96.1351 31.5012C96.0485 31.3513 96 31.1768 96 31L102 31C102 30.0963 101.758 29.2401 101.332 28.5026L96.1351 31.5012ZM97.8979 32.0001C96.9595 32.0001 96.3518 31.5316 96.1112 31.2975C95.8808 31.0732 95.8015 30.8957 95.8204 30.9329L101.173 28.2215C101.001 27.8826 100.726 27.4165 100.296 26.9977C99.8554 26.569 99.0436 26.0001 97.8979 26.0001L97.8979 32.0001ZM97 32C96.9412 32 96.881 31.9946 96.8206 31.9834L97.9108 26.0833C97.6133 26.0283 97.3086 26 97 26L97 32ZM61 32L97 32L97 26L61 26L61 32ZM97.8979 26.0001C97.784 26.0001 97.6829 26.0053 97.5991 26.0118C97.5157 26.0183 97.4435 26.0265 97.389 26.0334C97.3357 26.0401 97.289 26.0469 97.2634 26.0507C97.2566 26.0516 97.2499 26.0526 97.2448 26.0534C97.2393 26.0542 97.2352 26.0548 97.2314 26.0554C97.2237 26.0565 97.2207 26.0569 97.2199 26.057C97.2177 26.0573 97.2337 26.055 97.2599 26.0524C97.2866 26.0496 97.3308 26.0458 97.3876 26.0437C97.4998 26.0396 97.6842 26.0414 97.9108 26.0833L96.8206 31.9834C97.1341 32.0414 97.4063 32.047 97.607 32.0397C97.8017 32.0326 97.9628 32.0114 98.0414 32.0005C98.0793 31.9953 98.1214 31.989 98.132 31.9875C98.151 31.9847 98.1489 31.9851 98.1403 31.9862C98.1258 31.988 98.0315 32.0001 97.8979 32.0001L97.8979 26.0001ZM101.332 28.5026C101.227 28.3199 101.199 28.2732 101.173 28.2215L95.8204 30.9329C95.9406 31.1703 96.0785 31.4032 96.1351 31.5012L101.332 28.5026ZM101.931 30.4204C101.977 30.6103 102 30.8057 102 31L96 31C96 31.2815 96.0333 31.5614 96.1 31.836L101.931 30.4204ZM102 58.8355C102 58.9222 101.989 58.9888 101.979 59.0312L96.1336 57.6797C96.0509 58.0375 96 58.4252 96 58.8355L102 58.8355Z" fill="#0B3536" mask="url(#path-4-inside-1)"/>
<path d="M36.0915 12.5423C33.4327 13.5606 32.1127 16.54 33.1121 19.1989L36.1858 27.3263H5.41094C2.56351 27.3263 0.262939 29.6457 0.262939 32.4743C0.262939 35.3029 2.58237 37.6223 5.41094 37.6223H18.3658C17.8944 38.4143 17.6115 39.3571 17.6115 40.3377C17.6115 41.9406 18.3281 43.3737 19.4407 44.3543C18.3092 45.3349 17.6115 46.768 17.6115 48.3709C17.6115 50.6149 19.0069 52.5571 20.9869 53.3303C20.3647 54.1977 20.0064 55.2726 20.0064 56.4229C20.0064 59.3646 22.4012 61.7594 25.3429 61.7594H27.1909H29.0389H40.4664C45.5012 61.7594 50.0269 59.4966 53.0818 55.9514H60.4549C61.1904 55.9514 61.7749 55.3669 61.7749 54.6314V35.2086C61.7749 34.4731 61.1904 33.8886 60.4549 33.8886H52.7424C49.3104 29.8909 46.6327 25.3651 44.8035 20.4434L42.9932 15.5971C42.5029 14.3337 41.4658 13.2589 40.1269 12.6743C38.8447 12.1086 37.3549 12.052 36.0915 12.5423ZM20.2515 40.3377C20.2515 38.848 21.4584 37.6411 22.9481 37.6411H28.9069C30.3967 37.6411 31.6035 38.848 31.6035 40.3377C31.6035 41.8274 30.3967 43.0343 28.9069 43.0343H22.9481C21.4772 43.0343 20.2515 41.8274 20.2515 40.3377ZM22.9669 51.0863C21.4772 51.0863 20.2704 49.8794 20.2704 48.3897C20.2704 46.9 21.4772 45.6931 22.9669 45.6931H28.9258C30.4155 45.6931 31.6224 46.9 31.6224 48.3897C31.6224 49.8794 30.4155 51.0863 28.9258 51.0863H23.0989H22.9669ZM25.3618 59.1383C23.8721 59.1383 22.6652 57.9314 22.6652 56.4417C22.6652 54.952 23.8721 53.7451 25.3618 53.7451H28.9258H29.0578C30.5475 53.7451 31.7544 54.952 31.7544 56.4417C31.7544 57.9314 30.5475 59.1383 29.0578 59.1383H27.2098H25.3618ZM59.1727 53.3303H54.9675C56.3441 50.9166 57.1361 48.1069 57.1361 45.1274C57.1361 42.0914 56.3064 39.112 54.7412 36.5474H59.1727V53.3303ZM39.1275 15.1069C39.8252 15.4086 40.3532 15.9366 40.5795 16.54L42.3709 21.3674C44.3132 26.6097 47.1418 31.3994 50.8001 35.6234L51.1961 36.076C53.3269 38.6029 54.5149 41.8086 54.5149 45.1274C54.5149 52.84 48.2355 59.1383 40.5041 59.1383H33.6778C34.1492 58.3463 34.4132 57.4223 34.4132 56.4417C34.4132 54.8011 33.6778 53.3491 32.5087 52.3686C33.6024 51.388 34.2812 49.9737 34.2812 48.4086C34.2812 46.8057 33.5647 45.3726 32.4521 44.392C33.5835 43.4114 34.2812 41.9783 34.2812 40.3754C34.2812 37.4337 31.8864 35.0389 28.9447 35.0389H25.6824C25.6258 35.02 25.5504 35.02 25.4749 35.02H5.41094C4.03437 35.02 2.90294 33.8886 2.90294 32.512C2.90294 31.1354 4.03437 30.004 5.41094 30.004H38.1281C38.5618 30.004 38.9767 29.7966 39.2218 29.4383C39.4669 29.08 39.5235 28.6274 39.3727 28.2126L35.6201 18.2937C35.1298 16.9926 35.7709 15.5406 37.0721 15.0503C37.6567 14.7674 38.4109 14.8051 39.1275 15.1069Z" fill="#0B3536"/>
</svg>
