<svg width="62" height="50" viewBox="0 0 62 50" fill="none" xmlns="http://www.w3.org/2000/svg">
<path d="M36.0915 0.54229C33.4327 1.56058 32.1127 4.54 33.1121 7.19886L36.1858 15.3263H5.41094C2.56351 15.3263 0.262939 17.6457 0.262939 20.4743C0.262939 23.3029 2.58237 25.6223 5.41094 25.6223H18.3658C17.8944 26.4143 17.6115 27.3571 17.6115 28.3377C17.6115 29.9406 18.3281 31.3737 19.4407 32.3543C18.3092 33.3349 17.6115 34.768 17.6115 36.3709C17.6115 38.6149 19.0069 40.5571 20.9869 41.3303C20.3647 42.1977 20.0064 43.2726 20.0064 44.4229C20.0064 47.3646 22.4012 49.7594 25.3429 49.7594H27.1909H29.0389H40.4664C45.5012 49.7594 50.0269 47.4966 53.0818 43.9514H60.4549C61.1904 43.9514 61.7749 43.3669 61.7749 42.6314V23.2086C61.7749 22.4731 61.1904 21.8886 60.4549 21.8886H52.7424C49.3104 17.8909 46.6327 13.3651 44.8035 8.44343L42.9932 3.59715C42.5029 2.33372 41.4658 1.25886 40.1269 0.674291C38.8447 0.108576 37.3549 0.0520047 36.0915 0.54229ZM20.2515 28.3377C20.2515 26.848 21.4584 25.6411 22.9481 25.6411H28.9069C30.3967 25.6411 31.6035 26.848 31.6035 28.3377C31.6035 29.8274 30.3967 31.0343 28.9069 31.0343H22.9481C21.4772 31.0343 20.2515 29.8274 20.2515 28.3377ZM22.9669 39.0863C21.4772 39.0863 20.2704 37.8794 20.2704 36.3897C20.2704 34.9 21.4772 33.6931 22.9669 33.6931H28.9258C30.4155 33.6931 31.6224 34.9 31.6224 36.3897C31.6224 37.8794 30.4155 39.0863 28.9258 39.0863H23.0989H22.9669ZM25.3618 47.1383C23.8721 47.1383 22.6652 45.9314 22.6652 44.4417C22.6652 42.952 23.8721 41.7451 25.3618 41.7451H28.9258H29.0578C30.5475 41.7451 31.7544 42.952 31.7544 44.4417C31.7544 45.9314 30.5475 47.1383 29.0578 47.1383H27.2098H25.3618ZM59.1727 41.3303H54.9675C56.3441 38.9166 57.1361 36.1069 57.1361 33.1274C57.1361 30.0914 56.3064 27.112 54.7412 24.5474H59.1727V41.3303ZM39.1275 3.10686C39.8252 3.40858 40.3532 3.93658 40.5795 4.54L42.3709 9.36743C44.3132 14.6097 47.1418 19.3994 50.8001 23.6234L51.1961 24.076C53.3269 26.6029 54.5149 29.8086 54.5149 33.1274C54.5149 40.84 48.2355 47.1383 40.5041 47.1383H33.6778C34.1492 46.3463 34.4132 45.4223 34.4132 44.4417C34.4132 42.8011 33.6778 41.3491 32.5087 40.3686C33.6024 39.388 34.2812 37.9737 34.2812 36.4086C34.2812 34.8057 33.5647 33.3726 32.4521 32.392C33.5835 31.4114 34.2812 29.9783 34.2812 28.3754C34.2812 25.4337 31.8864 23.0389 28.9447 23.0389H25.6824C25.6258 23.02 25.5504 23.02 25.4749 23.02H5.41094C4.03437 23.02 2.90294 21.8886 2.90294 20.512C2.90294 19.1354 4.03437 18.004 5.41094 18.004H38.1281C38.5618 18.004 38.9767 17.7966 39.2218 17.4383C39.4669 17.08 39.5235 16.6274 39.3727 16.2126L35.6201 6.29372C35.1298 4.99258 35.7709 3.54058 37.0721 3.05029C37.6567 2.76743 38.4109 2.80515 39.1275 3.10686Z" fill="#0B3536"/>
</svg>
