<svg width="42" height="32" viewBox="0 0 42 32" fill="none" xmlns="http://www.w3.org/2000/svg">
<mask id="path-1-inside-1" fill="white">
<path fill-rule="evenodd" clip-rule="evenodd" d="M2 6.99382e-07C0.895431 3.13124e-07 -3.13124e-07 0.89543 -6.99382e-07 2L-1.04907e-05 30C-1.0877e-05 31.1046 0.89542 32 1.99999 32L38 32C39.1046 32 40 31.1046 40 30L40 29.8355C40 29.6737 40.02 29.5131 40.0565 29.3555C40.6988 26.5772 41.1277 21.5585 41.1277 15.8288C41.1277 9.97741 40.6804 4.86763 40.0153 2.1282C40.005 2.08584 40 2.04361 40 2.00001V2.00001C40 1.63652 39.903 1.29567 39.7335 1.00193C39.6526 0.861585 39.5698 0.721729 39.4966 0.577189C39.3061 0.201086 39.1053 6.29082e-05 38.8979 6.28357e-05V6.28357e-05C38.7213 6.27739e-05 38.5393 0.0654563 38.3657 0.0333717C38.2471 0.0114636 38.1249 1.33319e-05 38 1.32883e-05L2 6.99382e-07Z"/>
</mask>
<path fill-rule="evenodd" clip-rule="evenodd" d="M2 6.99382e-07C0.895431 3.13124e-07 -3.13124e-07 0.89543 -6.99382e-07 2L-1.04907e-05 30C-1.0877e-05 31.1046 0.89542 32 1.99999 32L38 32C39.1046 32 40 31.1046 40 30L40 29.8355C40 29.6737 40.02 29.5131 40.0565 29.3555C40.6988 26.5772 41.1277 21.5585 41.1277 15.8288C41.1277 9.97741 40.6804 4.86763 40.0153 2.1282C40.005 2.08584 40 2.04361 40 2.00001V2.00001C40 1.63652 39.903 1.29567 39.7335 1.00193C39.6526 0.861585 39.5698 0.721729 39.4966 0.577189C39.3061 0.201086 39.1053 6.29082e-05 38.8979 6.28357e-05V6.28357e-05C38.7213 6.27739e-05 38.5393 0.0654563 38.3657 0.0333717C38.2471 0.0114636 38.1249 1.33319e-05 38 1.32883e-05L2 6.99382e-07Z" fill="#E5E7DE"/>
<path d="M-6.99382e-07 2L-3 2L-6.99382e-07 2ZM2 6.99382e-07L2 3L2 6.99382e-07ZM-1.04907e-05 30L2.99999 30L-1.04907e-05 30ZM1.99999 32L1.99999 29L1.99999 32ZM38 32L38 35L38 32ZM40 2.00001L43 2.00001L40 2.00001ZM38 1.32883e-05L38 -2.99999L38 1.32883e-05ZM38.3657 0.0333717L38.9108 -2.91669L38.3657 0.0333717ZM39.7335 1.00193L37.1351 2.50123L39.7335 1.00193ZM39.4966 0.577189L36.8204 1.93291L39.4966 0.577189ZM40.0153 2.1282L42.9306 1.42042L40.0153 2.1282ZM40 2.00001L43 2.00001L40 2.00001ZM40.0565 29.3555L37.1336 28.6797L40.0565 29.3555ZM3 2C3 2.55229 2.55228 3 2 3L2 -3C-0.761421 -3 -3 -0.761426 -3 2L3 2ZM2.99999 30L3 2L-3 2L-3.00001 30L2.99999 30ZM1.99999 29C2.55227 29 2.99999 29.4477 2.99999 30L-3.00001 30C-3.00001 32.7614 -0.761432 35 1.99999 35L1.99999 29ZM38 29L1.99999 29L1.99999 35L38 35L38 29ZM37 30C37 29.4477 37.4477 29 38 29L38 35C40.7614 35 43 32.7614 43 30L37 30ZM37 29.8355L37 30L43 30L43 29.8355L37 29.8355ZM38.1277 15.8288C38.1277 21.4825 37.6991 26.2334 37.1336 28.6797L42.9794 30.0312C43.6984 26.921 44.1277 21.6345 44.1277 15.8288L38.1277 15.8288ZM37.1 2.83598C37.6795 5.223 38.1277 10.0472 38.1277 15.8288L44.1277 15.8288C44.1277 9.90768 43.6813 4.51227 42.9306 1.42042L37.1 2.83598ZM37.1351 2.50123C37.0485 2.35128 37 2.17677 37 2.00001L43 2.00001C43 1.09627 42.7575 0.240057 42.332 -0.497369L37.1351 2.50123ZM38.8979 3.00006C37.9595 3.00006 37.3518 2.53164 37.1112 2.29746C36.8808 2.07321 36.8015 1.89567 36.8204 1.93291L42.1728 -0.778532C42.0011 -1.11739 41.7262 -1.5835 41.2959 -2.00229C40.8554 -2.431 40.0436 -2.99994 38.8979 -2.99994L38.8979 3.00006ZM38 3.00001C37.9412 3.00001 37.881 2.99459 37.8206 2.98343L38.9108 -2.91669C38.6133 -2.97166 38.3086 -2.99999 38 -2.99999L38 3.00001ZM2 3L38 3.00001L38 -2.99999L2 -3L2 3ZM38.8979 -2.99994C38.784 -2.99994 38.6829 -2.99469 38.5991 -2.98818C38.5157 -2.9817 38.4435 -2.97349 38.389 -2.96661C38.3357 -2.95989 38.289 -2.95309 38.2634 -2.94934C38.2566 -2.94835 38.2499 -2.94735 38.2448 -2.94661C38.2393 -2.94581 38.2352 -2.9452 38.2314 -2.94465C38.2237 -2.94353 38.2207 -2.94311 38.2199 -2.943C38.2177 -2.94269 38.2337 -2.94497 38.2599 -2.94763C38.2866 -2.95035 38.3308 -2.95421 38.3876 -2.95629C38.4998 -2.9604 38.6842 -2.95857 38.9108 -2.91669L37.8206 2.98343C38.1341 3.04135 38.4063 3.04704 38.607 3.0397C38.8017 3.03257 38.9628 3.01136 39.0414 3.0005C39.0793 2.99526 39.1214 2.98901 39.132 2.98746C39.151 2.98468 39.1489 2.98508 39.1403 2.98617C39.1258 2.98799 39.0315 3.00006 38.8979 3.00006L38.8979 -2.99994ZM42.332 -0.497369C42.2266 -0.68006 42.199 -0.726815 42.1728 -0.778532L36.8204 1.93291C36.9406 2.17027 37.0785 2.40323 37.1351 2.50123L42.332 -0.497369ZM42.9306 1.42042C42.9767 1.61029 43 1.80568 43 2.00001L37 2.00001C37 2.28154 37.0333 2.56138 37.1 2.83598L42.9306 1.42042ZM43 29.8355C43 29.9222 42.9892 29.9888 42.9794 30.0312L37.1336 28.6797C37.0509 29.0375 37 29.4252 37 29.8355L43 29.8355Z" fill="#0B3536" mask="url(#path-1-inside-1)"/>
</svg>
