<svg width="66" height="33" viewBox="0 0 66 33" fill="none" xmlns="http://www.w3.org/2000/svg">
<path d="M64.4998 23.1811V23.1632V23.1453V23.1274V23.1094V23.0915V23.0735V23.0554V23.0374V23.0193V23.0012V22.9831V22.9649V22.9468V22.9286V22.9104V22.8921V22.8739V22.8556V22.8373V22.8189V22.8006V22.7822V22.7638V22.7453V22.7269V22.7084V22.6899V22.6714V22.6528V22.6342V22.6156V22.597V22.5783V22.5597V22.5409V22.5222V22.5034V22.4847V22.4659V22.447V22.4281V22.4093V22.3903V22.3714V22.3524V22.3334V22.3144V22.2954V22.2763V22.2572V22.238V22.2189V22.1997V22.1805V22.1613V22.142V22.1227V22.1034V22.084V22.0646V22.0452V22.0258V22.0063V21.9868V21.9673V21.9478V21.9282V21.9086V21.889V21.8693V21.8496V21.8299V21.8101V21.7904V21.7705V21.7507V21.7308V21.7109V21.691V21.6711V21.6511V21.6311V21.611V21.5909V21.5708V21.5507V21.5305V21.5103V21.4901V21.4699V21.4496V21.4292V21.4089V21.3885V21.3681V21.3477V21.3272V21.3067V21.2861V21.2656V21.245V21.2243V21.2037V21.183V21.1622V21.1415V21.1207V21.0998V21.079V21.0581V21.0372V21.0162V20.9952V20.9742V20.9531V20.9321V20.9109V20.8898V20.8686V20.8474V20.8261V20.8048V20.7835V20.7621V20.7408V20.7193V20.6979V20.6764V20.6549V20.6333V20.6117V20.5901V20.5684V20.5467V20.525V20.5032V20.4814V20.4596V20.4377V20.4158V20.3938V20.3718V20.3498V20.3278V20.3057V20.2836V20.2614V20.2392V20.217V20.1947V20.1724V20.1501V20.1277V20.1053V20.0828V20.0603V20.0378V20.0152V19.9926V19.97V19.9473V19.9246V19.9019V19.8791V19.8563V19.8334V19.8105V19.7876V19.7646V19.7416V19.7185V19.6954V19.6723V19.6491V19.6259V19.6027V19.5794V19.5561V19.5327V19.5093V19.4859V19.4624V19.4389V19.4154V19.3918V19.3681V19.3445V19.3207V19.297V19.2732V19.2494V19.2255V19.2016V19.1776V19.1536V19.1296V19.1055V19.0814V19.0572V19.033V19.0088V18.9845V18.9602V18.9358V18.9114V18.887V18.8625V18.838V18.8134V18.7888V18.7641V18.7394V18.7147V18.6899V18.6651V18.6402V18.6153V18.5904V18.5654V18.5404V18.5153V18.4902V18.465V18.4398V18.4145V18.3892V18.3639V18.3385V18.3131V18.2876V18.2621V18.2366V18.211V18.1853V18.1596V18.1339V18.1081V18.0823V18.0565V18.0305V18.0046V17.9786V17.9525V17.9265V17.9003V17.8742V17.8479V17.8217V17.7953V17.769V17.7426V17.7161V17.6896V17.6631V17.6365V17.6099V17.5832V17.5565V17.5297V17.5029V17.476V17.4491V17.4221V17.3951V17.3681V17.341V17.3138V17.2866V17.2594V17.2321V17.2048V17.1774V17.15V17.1225V17.095V17.0674V17.0398V17.0121V16.9844V16.9566V16.9288V16.9009V16.873V16.845V16.817V16.789V16.7609V16.7327V16.7045V16.6763V16.6479V16.6196V16.5912V16.5627V16.5342V16.5057V16.4771V16.4484V16.4197V16.391V16.3622V16.3333V16.3044V16.2755V16.2465V16.2174V16.1883V16.1591V16.1299V16.1007V16.0714V16.042V16.0126V15.9831V15.9536V15.9241V15.8944V15.8648V15.835V15.8053V15.7754V15.7456V15.7156V15.6857V15.6556V15.6255V15.5954V15.5652V15.535V15.5047V15.4743V15.4439V15.4134V15.3829V15.3524V15.3218V15.2911V15.2604V15.2296V15.1987V15.1679V15.1369V15.1059V15.0749V15.0438V15.0126V14.9814V14.9501V14.9188V14.8874V14.856V14.8245V14.793V14.7614V14.7297V14.698V14.6663V14.6344V14.6026V14.5706V14.5387V14.5066V14.4745V14.4424V14.4102V14.3779V14.3456V14.3132V14.2808V14.2483V14.2157V14.1831V14.1505V14.1178V14.085V14.0521V14.0193V13.9863V13.9533V13.9202V13.8871V13.8539V13.8207V13.7874V13.7541V13.7207V13.6872V13.6537V13.6201V13.5864V13.5527V13.519V13.4852V13.4513V13.4174V13.3834V13.3493V13.3152V13.281V13.2468V13.2125V13.1782V13.1437V13.1093V13.0747V13.0401V13.0055V12.9708V12.936V12.9012V12.8663V12.8313V12.7963V12.7613V12.7261V12.6909V12.6557V12.6204V12.585V12.5495V12.514V12.4785V12.4429V12.4072V12.3714V12.3356V12.2998V12.2638V12.2278V12.1918V12.1557V12.1195V12.0832V12.0469V12.0106V11.9741V11.9376V11.9011V11.8645V11.8278V11.791V11.7542V11.7174V11.6804V11.6434V11.6064V11.5692V11.532V11.4948V11.4575V11.4201V11.3826V11.3451V11.3075V11.2699V11.2322V11.1944V11.1566V11.1187V11.0807V11.0427V11.0046V10.9665V10.9282V10.8899V10.8516V10.8132V10.7747V10.7361V10.6975V10.6588V10.6201V10.5813V10.5424V10.5034V10.4644V10.4253V10.3862V10.347V10.3077V10.2683V10.2289V10.1894V10.1499V10.1103V10.0706V10.0308V9.99102V9.95113V9.91117V9.87115V9.83106V9.7909V9.75068V9.71038V9.67002V9.62959V9.58909V9.54852V9.50788V9.46718V9.4264V9.38556V9.34465V9.30367V9.26261V9.22149V9.1803V9.13905V9.09772V9.07858C64.4571 9.02478 64.3387 8.91142 64.044 8.75112C63.4531 8.42968 62.4905 8.12302 61.1502 7.86417C58.4973 7.35183 54.8185 7.10783 50.8333 7.01988C45.5024 6.90224 39.9089 7.06177 35.6737 7.18256C33.6159 7.24125 31.8787 7.2908 30.6481 7.29496C23.5702 8.82669 16.3699 8.62537 10.8908 8.47217C10.5847 8.46361 10.2839 8.4552 9.98887 8.44726C7.11595 8.36986 4.89529 8.34105 3.3936 8.57412C2.63678 8.69159 2.24971 8.85127 2.08185 8.96746C2.04171 8.99525 2.03299 8.99967 2.03351 9.00168C2.03397 9.0034 2.04129 9.00333 2.04129 9.01486C2.04123 15.0933 2.04127 17.8803 2.04131 20.0859C2.04132 21.1515 2.04134 22.0814 2.04134 23.1811C2.04134 23.6386 2.3952 24.4324 3.93192 25.4332C5.4048 26.3923 7.63535 27.3133 10.5258 28.1095C16.2855 29.6959 24.3276 30.696 33.2706 30.696C42.2136 30.696 50.2556 29.6959 56.0153 28.1095C58.9058 27.3133 61.1364 26.3923 62.6093 25.4332C64.146 24.4324 64.4998 23.6386 64.4998 23.1811ZM64.521 9.11393C64.5222 9.11378 64.5198 9.10654 64.5103 9.09265C64.515 9.10714 64.5198 9.11408 64.521 9.11393Z" fill="#F54123" stroke="#0B3536" stroke-width="3"/>
<path d="M64.4998 9.01488C64.4998 8.55745 64.1459 7.76356 62.6092 6.76284C61.1363 5.80368 58.9058 4.88267 56.0153 4.08652C50.2556 2.50008 42.2135 1.49997 33.2705 1.49997C24.3275 1.49997 16.2855 2.50008 10.5258 4.08652C7.63527 4.88267 5.40473 5.80368 3.93184 6.76284C2.39512 7.76356 2.04126 8.55745 2.04126 9.01488C2.04126 9.4723 2.39512 10.2662 3.93184 11.2669C5.40473 12.2261 7.63527 13.1471 10.5258 13.9432C16.2855 15.5297 24.3275 16.5298 33.2705 16.5298C42.2135 16.5298 50.2556 15.5297 56.0153 13.9432C58.9058 13.1471 61.1363 12.2261 62.6092 11.2669C64.1459 10.2662 64.4998 9.4723 64.4998 9.01488Z" fill="#F54123" stroke="#0B3536" stroke-width="3"/>
</svg>
