<svg width="113" height="26" viewBox="0 0 113 26" fill="none" xmlns="http://www.w3.org/2000/svg">
<path d="M110.556 13.0477C110.556 12.6426 110.383 12.1246 109.806 11.4796C109.22 10.8256 108.287 10.1229 106.961 9.40638C104.311 7.97448 100.378 6.63797 95.3903 5.49788C85.4386 3.2232 71.6162 1.80266 56.2966 1.80266C40.9771 1.80266 27.1546 3.2232 17.2029 5.49788C12.215 6.63797 8.28181 7.97448 5.6321 9.40638C4.3063 10.1229 3.37305 10.8256 2.78752 11.4796C2.21009 12.1246 2.03711 12.6426 2.03711 13.0477C2.03711 13.4528 2.21009 13.9708 2.78752 14.6157C3.37305 15.2698 4.3063 15.9725 5.6321 16.689C8.28181 18.1209 12.215 19.4574 17.2029 20.5975C27.1546 22.8722 40.9771 24.2927 56.2966 24.2927C71.6162 24.2927 85.4386 22.8722 95.3903 20.5975C100.378 19.4574 104.311 18.1209 106.961 16.689C108.287 15.9725 109.22 15.2698 109.806 14.6157C110.383 13.9708 110.556 13.4528 110.556 13.0477Z" fill="#E5E7DE" stroke="#0B3536" stroke-width="3"/>
<mask id="mask0" mask-type="alpha" maskUnits="userSpaceOnUse" x="0" y="0" width="113" height="26">
<path d="M110.556 13.0477C110.556 12.6426 110.383 12.1246 109.806 11.4796C109.22 10.8256 108.287 10.1229 106.961 9.40638C104.311 7.97448 100.378 6.63797 95.3903 5.49788C85.4386 3.2232 71.6162 1.80266 56.2966 1.80266C40.9771 1.80266 27.1546 3.2232 17.2029 5.49788C12.215 6.63797 8.28181 7.97448 5.6321 9.40638C4.3063 10.1229 3.37305 10.8256 2.78752 11.4796C2.21009 12.1246 2.03711 12.6426 2.03711 13.0477C2.03711 13.4528 2.21009 13.9708 2.78752 14.6157C3.37305 15.2698 4.3063 15.9725 5.6321 16.689C8.28181 18.1209 12.215 19.4574 17.2029 20.5975C27.1546 22.8722 40.9771 24.2927 56.2966 24.2927C71.6162 24.2927 85.4386 22.8722 95.3903 20.5975C100.378 19.4574 104.311 18.1209 106.961 16.689C108.287 15.9725 109.22 15.2698 109.806 14.6157C110.383 13.9708 110.556 13.4528 110.556 13.0477Z" fill="white" stroke="#0B3536" stroke-width="3"/>
</mask>
<g mask="url(#mask0)">
<ellipse rx="55.7595" ry="12.745" transform="matrix(1 0 0 -1 56.2966 21.9139)" fill="#0B3536"/>
</g>
</svg>
