<svg width="87" height="87" viewBox="0 0 87 87" fill="none" xmlns="http://www.w3.org/2000/svg">
<g clip-path="url(#clip0)">
<path d="M43.4705 51.6036C33.4251 51.6036 35.6933 64.7165 28.7009 64.7165C26.999 64.7165 25.7678 64.275 25.0415 63.4047C23.8468 61.9731 24.2296 59.7212 24.2391 59.6674C24.3682 58.9785 23.916 58.3145 23.2273 58.1827C22.5363 58.0509 21.8703 58.5032 21.7382 59.1935C21.7115 59.3331 21.1068 62.6402 23.0712 65.0161C24.3032 66.5063 26.1974 67.2619 28.701 67.2619C37.993 67.2619 35.3612 54.149 43.4706 54.149C44.1735 54.149 44.7433 53.5794 44.7433 52.8764C44.7431 52.1733 44.1733 51.6036 43.4705 51.6036Z" fill="white"/>
<path d="M85.7717 10.5023L85.0329 9.76349C83.5592 8.28964 81.16 8.28964 79.6861 9.76332L72.1341 17.3153C71.4855 16.8121 70.6814 16.5255 69.8262 16.5255C67.3658 16.5255 6.59163 16.5255 3.78068 16.5255C1.6958 16.5253 0 18.2218 0 20.3062C0 22.5466 0 73.3992 0 74.4383C0 76.5231 1.69597 78.219 3.78068 78.219H40.3038C41.0066 78.219 41.5764 77.6494 41.5764 76.9464C41.5764 76.2434 41.0066 75.6738 40.3038 75.6738H3.78068C3.09958 75.6738 2.5454 75.1196 2.5454 74.4385V29.9388C4.41291 29.9388 58.3719 29.9388 59.5104 29.9388L54.405 35.0442C48.0486 33.8306 42.7978 42.1627 44.2891 49.413C44.4768 50.3249 45.1905 51.0542 46.122 51.2457L46.1251 51.2463C53.5397 52.7705 61.6866 47.3924 60.4909 41.13C61.5378 40.0831 70.0022 31.6187 71.0615 30.5593V55.0818C71.0615 55.7848 71.6313 56.3544 72.3341 56.3544C73.0369 56.3544 73.6067 55.7848 73.6067 55.0818V28.0139L85.7716 15.8491C87.2456 14.3756 87.2454 11.9761 85.7717 10.5023ZM10.8681 27.3936H2.5454V20.3062C2.5454 19.6251 3.09958 19.0709 3.78068 19.0709H10.8681V27.3936ZM13.4135 27.3936V19.0709H69.8262C69.9854 19.0709 70.1415 19.1033 70.2862 19.1632L62.0558 27.3936H13.4135ZM56.464 45.813C53.9125 48.3647 50.2867 49.4617 46.7578 48.7771C46.0694 45.2261 47.1798 41.5695 49.7956 39.0003C51.1394 37.6812 52.6801 37.1243 54.4283 37.6705C56.0185 38.1679 57.3675 39.5167 57.8647 41.1068C58.4326 42.9229 57.8038 44.4722 56.464 45.813ZM59.4641 38.5571C58.8336 37.5574 57.978 36.7016 56.9781 36.0711L61.2257 31.8235L63.7118 34.3095L59.4641 38.5571ZM83.9719 14.0493C83.189 14.8322 66.2909 31.7303 65.5114 32.5098L63.0254 30.0238L81.4859 11.5631C81.9648 11.0843 82.7539 11.0843 83.2329 11.5633L83.9717 12.3021C84.4508 12.7811 84.4508 13.5705 83.9719 14.0493Z" fill="white"/>
<path d="M72.3344 51.0149C71.6315 51.0149 71.0617 51.5845 71.0617 52.2875V74.4383C71.0617 75.1195 70.5076 75.6736 69.8265 75.6736H39.6051C38.9023 75.6736 38.3325 76.2432 38.3325 76.9462C38.3325 77.6492 38.9023 78.2188 39.6051 78.2188H69.8263C71.911 78.2188 73.607 76.5228 73.607 74.4381V52.2875C73.607 51.5847 73.0373 51.0149 72.3344 51.0149Z" fill="white"/>
</g>
<defs>
<clipPath id="clip0">
<rect width="86.877" height="86.877" fill="white"/>
</clipPath>
</defs>
</svg>
