<svg width="49" height="49" viewBox="0 0 49 49" fill="none" xmlns="http://www.w3.org/2000/svg">
<g clip-path="url(#clip0)">
<path d="M24.1697 0.169556C10.9359 0.169556 0.169678 10.9358 0.169678 24.1696C0.169678 37.4033 10.9359 48.1696 24.1697 48.1696C37.4034 48.1696 48.1697 37.4033 48.1697 24.1696C48.1697 10.9358 37.4034 0.169556 24.1697 0.169556ZM24.1697 45.1696C12.5904 45.1696 3.16968 35.7488 3.16968 24.1696C3.16968 12.5903 12.5904 3.16956 24.1697 3.16956C35.7489 3.16956 45.1697 12.5903 45.1697 24.1696C45.1697 35.7488 35.7489 45.1696 24.1697 45.1696Z" fill="#0B3536"/>
<path d="M15.6697 25.1696C17.6027 25.1696 19.1697 22.7071 19.1697 19.6696C19.1697 16.632 17.6027 14.1696 15.6697 14.1696C13.7367 14.1696 12.1697 16.632 12.1697 19.6696C12.1697 22.7071 13.7367 25.1696 15.6697 25.1696Z" fill="#0B3536"/>
<path d="M24.6697 25.1696C26.6027 25.1696 28.1697 22.7071 28.1697 19.6696C28.1697 16.632 26.6027 14.1696 24.6697 14.1696C22.7367 14.1696 21.1697 16.632 21.1697 19.6696C21.1697 22.7071 22.7367 25.1696 24.6697 25.1696Z" fill="#0B3536"/>
<path d="M33.6697 25.1696C35.6027 25.1696 37.1697 22.7071 37.1697 19.6696C37.1697 16.632 35.6027 14.1696 33.6697 14.1696C31.7367 14.1696 30.1697 16.632 30.1697 19.6696C30.1697 22.7071 31.7367 25.1696 33.6697 25.1696Z" fill="#0B3536"/>
<path d="M37.2596 29.2228C36.5885 29.0227 35.8754 29.4044 35.6741 30.0736C35.6518 30.149 33.2914 37.6372 24.1697 37.6372C15.1085 37.6372 12.7602 30.3775 12.664 30.0686C12.4601 29.4006 11.7457 29.024 11.0798 29.2228C10.4049 29.4234 10.022 30.1293 10.2233 30.7985C10.252 30.8922 13.1719 40.1696 24.1697 40.1696C35.1674 40.1696 38.0874 30.8922 38.116 30.7979C38.3174 30.1293 37.9344 29.4234 37.2596 29.2228Z" fill="#0B3536"/>
</g>
<defs>
<clipPath id="clip0">
<rect width="48" height="48" fill="white" transform="translate(0.169678 0.169556)"/>
</clipPath>
</defs>
</svg>
