<svg width="213" height="205" viewBox="0 0 213 205" fill="none" xmlns="http://www.w3.org/2000/svg">
<path d="M85.3561 55.2302L86.6064 55.6441L87.1786 54.458L100.897 26.0217L118.469 51.207L119.245 52.3199L120.43 51.6585L148.602 35.9312L147.175 66.8437L147.109 68.2746L148.535 68.4065L180.088 71.3242L160.245 95.9875L159.347 97.1039L160.421 98.0523L183.632 118.544L152.765 127.746L151.463 128.135L151.721 129.468L157.569 159.737L127.555 149.725L126.306 149.308L125.731 150.493L111.909 178.982L94.2833 153.679L93.5068 152.564L92.3208 153.227L64.2605 168.904L65.7326 138.113L65.8012 136.677L64.37 136.547L32.7114 133.671L52.6145 108.849L53.5108 107.732L52.4352 106.785L29.2805 86.4084L60.1429 77.2075L61.4493 76.818L61.1861 75.4804L55.2407 45.2598L85.3561 55.2302Z" fill="#F54123" stroke="#0B3536" stroke-width="3"/>
</svg>
