<svg width="248" height="123" viewBox="0 0 248 123" fill="none" xmlns="http://www.w3.org/2000/svg">
<path d="M5 5.08514C24.8316 5.08514 24.8316 35.4043 44.6632 35.4043C64.4948 35.4043 64.4948 5.08514 84.3264 5.08514C104.158 5.08514 104.158 35.4043 123.99 35.4043C143.821 35.4043 143.821 5.08514 163.653 5.08514C183.484 5.08514 183.484 35.4043 203.326 35.4043C223.168 35.4043 223.158 5.08514 243 5.08514" stroke="#0B3536" stroke-width="10" stroke-miterlimit="10" stroke-linecap="round" stroke-linejoin="round"/>
<path d="M5 45.5107C24.8316 45.5107 24.8316 76.8405 44.6632 76.8405C64.4948 76.8405 64.4948 45.5107 84.3264 45.5107C104.158 45.5107 104.158 76.8405 123.99 76.8405C143.821 76.8405 143.821 45.5107 163.653 45.5107C183.484 45.5107 183.484 76.8405 203.326 76.8405C223.168 76.8405 223.158 45.5107 243 45.5107" stroke="#0B3536" stroke-width="10" stroke-miterlimit="10" stroke-linecap="round" stroke-linejoin="round"/>
<path d="M5 86.9468C24.8316 86.9468 24.8316 117.266 44.6632 117.266C64.4948 117.266 64.4948 86.9468 84.3264 86.9468C104.158 86.9468 104.158 117.266 123.99 117.266C143.821 117.266 143.821 86.9468 163.653 86.9468C183.484 86.9468 183.484 117.266 203.326 117.266C223.168 117.266 223.158 86.9468 243 86.9468" stroke="#0B3536" stroke-width="10" stroke-miterlimit="10" stroke-linecap="round" stroke-linejoin="round"/>
</svg>
