<svg xmlns="http://www.w3.org/2000/svg" height="32" width="32" viewBox="0 0 80 80"><defs><style>.cls-1{fill:#0b3536;stroke:#0b3536;}.cls-1,.cls-2{stroke-linecap:round;stroke-linejoin:round;stroke-width:3px;}.cls-2{fill:#fff6f5;stroke:#f54123;}</style></defs><title>Plan de travail 2</title><g id="Calque_4_-_copie_2" data-name="Calque 4 - copie 2"><path class="cls-1" d="M55.74,38a5.4,5.4,0,0,0,.12-1.07V20A4.92,4.92,0,0,0,46,20V34.39h-.66a3.58,3.58,0,0,0-7.16,0H36.86a3.81,3.81,0,0,0-7.18,1.66,14,14,0,0,0-1.34.81A3.42,3.42,0,0,0,22,38.69v8.08a3.18,3.18,0,0,0,.07.62c0,.42-.07.83-.07,1.25v2.14A14.34,14.34,0,0,0,36.37,65h9.87A14.34,14.34,0,0,0,60.58,50.78V48.64A14.19,14.19,0,0,0,55.74,38Z"/></g><g id="Calque_4" data-name="Calque 4"><rect class="cls-2" x="39.58" y="11.74" width="9.84" height="26.89" rx="4.8"/><rect class="cls-2" x="15.58" y="31.16" width="38.55" height="30.83" rx="14"/><rect class="cls-2" x="31.76" y="27.59" width="7.16" height="12.53" rx="3.5"/><rect class="cls-2" x="22.94" y="29.12" width="7.94" height="15.34" rx="3.74"/><rect class="cls-2" x="15.58" y="32.06" width="7.23" height="14.98" rx="3.35"/><path class="cls-2" d="M42.14,41.33H35.69A4.35,4.35,0,0,1,31.32,37V36a4.35,4.35,0,0,1,4.37-4.3h7.69"/><path class="cls-2" d="M34.57,57.62s-2.12-13.23,7.57-16.29"/></g></svg>