<svg xmlns="http://www.w3.org/2000/svg" height="60" width="60" viewBox="0 0 80 80"><defs><style>.cls-1{fill:#0b3536;stroke:#0b3536;}.cls-1,.cls-2{stroke-linecap:round;stroke-linejoin:round;stroke-width:3px;}.cls-2{fill:#fff6f5;stroke:#f54123;}</style></defs><title>Plan de travail 2</title><g id="Calque_4_-_copie_2" data-name="Calque 4 - copie 2"><path class="cls-1" d="M20.43,38a4.75,4.75,0,0,1-.13-1.07V20a4.92,4.92,0,0,1,9.84,0V34.39h.66a3.58,3.58,0,0,1,7.16,0h1.35a3.81,3.81,0,0,1,7.18,1.66,14,14,0,0,1,1.34.81,3.42,3.42,0,0,1,6.3,1.83v8.08a3.18,3.18,0,0,1-.06.62c0,.42.06.83.06,1.25v2.14A14.34,14.34,0,0,1,39.79,65H29.92A14.34,14.34,0,0,1,15.58,50.78V48.64A14.2,14.2,0,0,1,20.43,38Z"/></g><g id="Calque_4" data-name="Calque 4"><rect class="cls-2" x="26.75" y="11.74" width="9.84" height="26.89" rx="4.8" transform="translate(63.34 50.38) rotate(-180)"/><rect class="cls-2" x="22.03" y="31.16" width="38.55" height="30.83" rx="14" transform="translate(82.61 93.15) rotate(-180)"/><rect class="cls-2" x="37.24" y="27.59" width="7.16" height="12.53" rx="3.5" transform="translate(81.65 67.72) rotate(-180)"/><rect class="cls-2" x="45.29" y="29.12" width="7.94" height="15.34" rx="3.74" transform="translate(98.52 73.59) rotate(-180)"/><rect class="cls-2" x="53.36" y="32.06" width="7.23" height="14.98" rx="3.35" transform="translate(113.94 79.1) rotate(180)"/><path class="cls-2" d="M34,41.33h6.44A4.34,4.34,0,0,0,44.84,37V36a4.34,4.34,0,0,0-4.37-4.3H32.78"/><path class="cls-2" d="M41.6,57.62S43.71,44.39,34,41.33"/></g></svg>