<svg width="101" height="112" viewBox="0 0 101 112" fill="none" xmlns="http://www.w3.org/2000/svg">
<path d="M1.5 100.5C1.5 100.819 1.63487 101.253 2.13975 101.817C2.65271 102.39 3.47896 103.015 4.66694 103.657C7.04101 104.94 10.5754 106.142 15.0704 107.169C24.0364 109.219 36.4971 110.5 50.3125 110.5C64.1279 110.5 76.5886 109.219 85.5546 107.169C90.0496 106.142 93.584 104.94 95.9581 103.657C97.146 103.015 97.9723 102.39 98.4853 101.817C98.9901 101.253 99.125 100.819 99.125 100.5C99.125 100.181 98.9901 99.7468 98.4853 99.1829C97.9723 98.6099 97.146 97.9853 95.9581 97.3433C93.584 96.0604 90.0496 94.858 85.5546 93.8306C76.5886 91.7812 64.1279 90.5 50.3125 90.5C36.4971 90.5 24.0364 91.7812 15.0704 93.8306C10.5754 94.858 7.04101 96.0604 4.66694 97.3433C3.47896 97.9853 2.65271 98.6099 2.13975 99.1829C1.63487 99.7468 1.5 100.181 1.5 100.5Z" fill="#E5E7DE" stroke="#0B3536" stroke-width="3"/>
<mask id="mask0" mask-type="alpha" maskUnits="userSpaceOnUse" x="0" y="89" width="101" height="24">
<path d="M1.5 100.5C1.5 100.819 1.63487 101.253 2.13975 101.817C2.65271 102.39 3.47896 103.015 4.66694 103.657C7.04101 104.94 10.5754 106.142 15.0704 107.169C24.0364 109.219 36.4971 110.5 50.3125 110.5C64.1279 110.5 76.5886 109.219 85.5546 107.169C90.0496 106.142 93.584 104.94 95.9581 103.657C97.146 103.015 97.9723 102.39 98.4853 101.817C98.9901 101.253 99.125 100.819 99.125 100.5C99.125 100.181 98.9901 99.7468 98.4853 99.1829C97.9723 98.6099 97.146 97.9853 95.9581 97.3433C93.584 96.0604 90.0496 94.858 85.5546 93.8306C76.5886 91.7812 64.1279 90.5 50.3125 90.5C36.4971 90.5 24.0364 91.7812 15.0704 93.8306C10.5754 94.858 7.04101 96.0604 4.66694 97.3433C3.47896 97.9853 2.65271 98.6099 2.13975 99.1829C1.63487 99.7468 1.5 100.181 1.5 100.5Z" fill="white" stroke="#0B3536" stroke-width="3"/>
</mask>
<g mask="url(#mask0)">
<ellipse rx="50.3125" ry="11.5" transform="matrix(-1 8.74228e-08 8.74228e-08 1 50.3125 108.969)" fill="#0B3536"/>
</g>
<mask id="path-4-inside-1" fill="white">
<path fill-rule="evenodd" clip-rule="evenodd" d="M66 105.018C66 106.665 58.6127 108 49.5 108C40.3873 108 33 106.665 33 105.018C33 104.785 33.0571 104.543 33.0223 104.312C33.0076 104.214 33 104.114 33 104.012L33 55C33 53.8954 33.8955 53 35 53L64 53C65.1046 53 66 53.8954 66 55L66 104.012C66 104.114 65.9924 104.214 65.9777 104.312C65.943 104.543 66 104.785 66 105.018Z"/>
</mask>
<path fill-rule="evenodd" clip-rule="evenodd" d="M66 105.018C66 106.665 58.6127 108 49.5 108C40.3873 108 33 106.665 33 105.018C33 104.785 33.0571 104.543 33.0223 104.312C33.0076 104.214 33 104.114 33 104.012L33 55C33 53.8954 33.8955 53 35 53L64 53C65.1046 53 66 53.8954 66 55L66 104.012C66 104.114 65.9924 104.214 65.9777 104.312C65.943 104.543 66 104.785 66 105.018Z" fill="#E5E7DE"/>
<path d="M65.9777 104.312L68.9444 104.758L65.9777 104.312ZM33.0223 104.312L35.989 103.866L33.0223 104.312ZM49.5 105C53.9339 105 57.8719 104.674 60.6337 104.175C62.0392 103.921 62.9928 103.647 63.5246 103.42C63.8023 103.302 63.7992 103.264 63.6789 103.371C63.5723 103.465 63 104.015 63 105.018L69 105.018C69 106.433 68.1969 107.385 67.6507 107.868C67.0908 108.362 66.4393 108.7 65.8821 108.938C64.744 109.424 63.2813 109.793 61.7008 110.079C58.4908 110.659 54.1788 111 49.5 111L49.5 105ZM36 105.018C36 104.015 35.4277 103.465 35.3211 103.371C35.2008 103.264 35.1977 103.302 35.4754 103.42C36.0072 103.647 36.9608 103.921 38.3663 104.175C41.1281 104.674 45.0661 105 49.5 105L49.5 111C44.8212 111 40.5092 110.659 37.2992 110.079C35.7188 109.793 34.256 109.424 33.1179 108.938C32.5607 108.7 31.9093 108.362 31.3493 107.868C30.8031 107.385 30 106.433 30 105.018L36 105.018ZM36 104.012C36 103.964 35.9964 103.915 35.989 103.866L30.0557 104.758C30.0189 104.513 30 104.264 30 104.012L36 104.012ZM36 55L36 104.012L30 104.012L30 55L36 55ZM35 56C35.5523 56 36 55.5523 36 55L30 55C30 52.2386 32.2386 50 35 50L35 56ZM64 56L35 56L35 50L64 50L64 56ZM63 55C63 55.5523 63.4477 56 64 56L64 50C66.7614 50 69 52.2386 69 55L63 55ZM63 104.012L63 55L69 55L69 104.012L63 104.012ZM63.011 103.866C63.0036 103.915 63 103.964 63 104.012L69 104.012C69 104.264 68.9812 104.513 68.9444 104.758L63.011 103.866ZM68.9444 104.758C68.9648 104.622 68.9669 104.518 68.9664 104.463C68.966 104.412 68.963 104.385 68.9654 104.414C68.9666 104.428 68.968 104.444 68.9711 104.478C68.9738 104.506 68.9779 104.551 68.9818 104.599C68.9895 104.693 69 104.843 69 105.018L63 105.018C63 105.076 63.0034 105.109 63.0015 105.085C63.0006 105.074 62.9993 105.059 62.9965 105.028C62.9941 105.003 62.99 104.959 62.9863 104.914C62.973 104.756 62.9389 104.346 63.011 103.866L68.9444 104.758ZM30 105.018C30 104.843 30.0106 104.693 30.0182 104.599C30.0221 104.551 30.0263 104.506 30.0289 104.478C30.032 104.444 30.0334 104.428 30.0346 104.414C30.0371 104.385 30.034 104.412 30.0336 104.463C30.0332 104.517 30.0352 104.622 30.0557 104.758L35.989 103.866C36.0611 104.346 36.027 104.756 36.0137 104.914C36.01 104.959 36.0059 105.003 36.0036 105.028C36.0007 105.059 35.9994 105.074 35.9985 105.085C35.9966 105.109 36 105.076 36 105.018L30 105.018Z" fill="#0B3536" mask="url(#path-4-inside-1)"/>
<g clip-path="url(#clip0)">
<path d="M80.7629 18.6436C80.5631 17.1092 79.7775 15.7443 78.5512 14.8005C76.0198 12.8524 72.3753 13.3269 70.4259 15.86L68.4847 18.3888L68.6414 17.0365C68.8289 15.4195 68.3753 13.8261 67.3643 12.5503C66.3534 11.2743 64.9062 10.4685 63.289 10.281C61.6722 10.0944 60.0786 10.5472 58.8028 11.5581C58.6938 11.6443 58.5898 11.735 58.4877 11.8275C57.5242 10.4285 55.9872 9.43497 54.1713 9.22448C52.5543 9.03765 50.9612 9.49065 49.6851 10.5016C49.577 10.5871 49.4736 10.6772 49.3723 10.769C49.2947 10.6566 49.2145 10.5454 49.1289 10.4373C48.118 9.16127 46.6706 8.35545 45.0536 8.16797C43.4368 7.98092 41.8433 8.43414 40.5674 9.44507C39.2914 10.456 38.4856 11.9034 38.2981 13.5204L38.0105 16.0021L35.1927 5.67849C34.7853 4.18554 33.8208 2.94069 32.477 2.17336C31.1333 1.40581 29.5711 1.2078 28.0783 1.61522C24.9968 2.45651 23.174 5.64797 24.0194 8.74439L32.1709 37.4634C33.0416 40.5308 34.6698 43.2608 36.917 45.4564C36.8858 45.577 36.8675 45.7028 36.8675 45.8331V54.0871C36.8675 54.9183 37.5413 55.5921 38.3725 55.5921H60.1143C60.9455 55.5921 61.6193 54.9183 61.6193 54.0871V45.8331C61.6193 45.8281 61.6187 45.8234 61.6187 45.8185C62.2858 45.2266 62.9153 44.5846 63.4999 43.8929C63.515 43.8751 63.5296 43.857 63.544 43.8383L79.6094 22.9249C80.553 21.6985 80.9628 20.1781 80.7629 18.6436ZM60.6723 13.9175C61.2229 13.4815 61.8898 13.2501 62.5817 13.2501C62.7014 13.2501 62.822 13.257 62.9427 13.2712C63.7612 13.366 64.4934 13.7739 65.0051 14.4197C65.5168 15.0656 65.7462 15.8716 65.6514 16.6901L64.7074 24.8365C64.6126 25.655 64.2047 26.3872 63.5591 26.8989C62.9132 27.4106 62.1067 27.6409 61.2887 27.5452C59.5992 27.3494 58.384 25.8158 58.5799 24.1263L59.5239 15.98C59.6188 15.1615 60.0266 14.4292 60.6723 13.9175ZM51.5546 12.861C52.1052 12.425 52.7721 12.1936 53.464 12.1936C53.5837 12.1936 53.7043 12.2005 53.8252 12.2147C55.5144 12.4103 56.7296 13.9441 56.534 15.6336L55.2809 26.4468C55.1861 27.2653 54.7783 27.9976 54.1326 28.5093C53.487 29.021 52.6814 29.2513 51.862 29.1556C51.0437 29.0608 50.3112 28.6529 49.7995 28.0073C49.2878 27.3616 49.0584 26.5554 49.1532 25.7369L50.4063 14.9235C50.5011 14.105 50.9089 13.3725 51.5546 12.861ZM40.0355 24.6801L41.2886 13.8667C41.4704 12.2975 42.8069 11.1373 44.3501 11.1373C44.4682 11.1373 44.5875 11.144 44.7075 11.158C45.5258 11.2528 46.2583 11.6606 46.77 12.3063C47.2815 12.9519 47.5111 13.7584 47.4163 14.5769L46.1632 25.3901C45.9674 27.0795 44.4327 28.2949 42.7443 28.0989C41.926 28.004 41.1935 27.5962 40.6818 26.9505C40.1701 26.3049 39.9407 25.4984 40.0355 24.6801ZM58.6096 52.5819H39.8775V47.8014C42.5295 49.4838 45.5415 50.4145 48.6929 50.5059C48.8759 50.5113 49.0593 50.5138 49.2435 50.5138C52.5775 50.5138 55.7976 49.627 58.6096 47.9938V52.5819ZM77.2231 21.0901L61.1788 41.976C58.1965 45.4897 53.8484 47.5038 49.2435 47.5038C49.089 47.5038 48.9348 47.5017 48.7806 47.4972C42.3679 47.3112 36.8568 42.9487 35.0663 36.6414L26.9191 7.93706C26.7232 7.21983 26.8185 6.46926 27.1872 5.82362C27.5559 5.17798 28.1538 4.71465 28.8711 4.519C29.5885 4.32292 30.3389 4.41838 30.9843 4.78711C31.6297 5.15583 32.0932 5.75375 32.2889 6.47098L36.9662 23.6043C36.997 23.7167 37.0406 23.8217 37.0933 23.9201L37.0453 24.3334C36.8579 25.9504 37.3115 27.5437 38.3224 28.8195C39.3334 30.0956 40.7807 30.9014 42.3977 31.0889C42.6351 31.1164 42.8703 31.1297 43.1038 31.1297C44.6561 31.1297 46.1017 30.5346 47.1952 29.5421C47.2733 29.6555 47.3539 29.7675 47.4403 29.8763C48.4513 31.1523 49.8986 31.9581 51.5154 32.1454C51.7541 32.1729 51.9925 32.1866 52.2292 32.1866C53.596 32.1866 54.9141 31.7298 56.0016 30.8683C56.6546 30.351 57.1835 29.7189 57.5702 29.0087C58.478 29.8277 59.6379 30.3837 60.9423 30.535C61.181 30.5625 61.419 30.5763 61.6557 30.5763C63.0224 30.5763 64.3408 30.1194 65.4283 29.2579C66.7043 28.247 67.5101 26.7996 67.6976 25.1826L67.8102 24.211L72.8126 17.6942C73.749 16.4781 75.4999 16.25 76.7157 17.1857C77.3048 17.6391 77.6824 18.2949 77.7783 19.0321C77.8741 19.7696 77.6774 20.4999 77.2231 21.0901Z" fill="#0B3536"/>
</g>
<defs>
<clipPath id="clip0">
<rect width="57" height="57" fill="white" transform="matrix(1 0 0 -1 23.8125 57)"/>
</clipPath>
</defs>
</svg>
