<?xml version="1.0" standalone="no"?>
<!DOCTYPE svg PUBLIC "-//W3C//DTD SVG 20010904//EN"
 "http://www.w3.org/TR/2001/REC-SVG-20010904/DTD/svg10.dtd">
<svg version="1.0" xmlns="http://www.w3.org/2000/svg"
 width="260.000000pt" height="260.000000pt" viewBox="0 0 260.000000 260.000000"
 preserveAspectRatio="xMidYMid meet">
<metadata>
Created by potrace 1.11, written by Peter Selinger 2001-2013
</metadata>
<g transform="translate(0.000000,260.000000) scale(0.100000,-0.100000)"
fill="#000000" stroke="none">
<path d="M1145 2349 c-22 -4 -51 -10 -65 -12 -73 -14 -246 -77 -280 -102 -8
-6 -26 -17 -40 -23 -41 -21 -141 -98 -201 -157 -133 -128 -240 -313 -285 -495
-39 -152 -39 -376 -2 -515 6 -22 11 -44 13 -50 1 -5 5 -17 8 -25 4 -8 16 -42
28 -75 12 -33 29 -71 38 -85 9 -14 22 -36 29 -50 19 -38 94 -136 144 -188 36
-38 68 -66 175 -152 7 -6 17 -10 23 -10 5 0 10 -4 10 -8 0 -12 183 -97 251
-116 182 -53 399 -57 572 -12 113 29 276 106 362 171 72 53 190 169 213 208 9
15 20 27 24 27 4 0 8 5 8 10 0 6 13 28 29 50 42 59 107 213 132 316 33 135 32
362 -2 499 -33 130 -97 264 -179 373 -84 111 -117 143 -262 255 -52 40 -229
119 -323 143 -80 21 -128 26 -240 29 -77 1 -158 -1 -180 -6z"/>
</g>
</svg>
