<svg width="71" height="85" viewBox="0 0 71 85" fill="none" xmlns="http://www.w3.org/2000/svg">
<path d="M64.448 13.9008C60.5898 5.6702 55.2261 1.16184 49.3682 1.16184L23.3491 1.1156C22.8316 1.04624 22.2905 1 21.7494 1C15.8681 1 10.4807 5.5546 6.59905 13.8315C2.97613 21.5304 1 31.7031 1 42.5C1 53.2969 2.99966 63.4696 6.59905 71.1685C10.4807 79.4454 15.8681 84 21.7494 84C22.2905 84 22.808 83.9538 23.3491 83.8844L49.18 83.8382C55.0614 83.8382 60.4487 79.3529 64.3539 71.1223C68.0003 63.4465 70 53.2738 70 42.5C70 31.7031 68.0239 21.5535 64.448 13.9008ZM22.4787 79.3298H22.3611C22.2199 79.3298 22.0788 79.3529 21.9376 79.376C21.867 79.376 21.7965 79.376 21.7259 79.376C17.8677 79.376 13.9154 75.6769 10.8807 69.2496C7.54006 62.1518 5.70508 52.6496 5.70508 42.5C5.70508 32.3504 7.54006 22.8713 10.8807 15.7504C13.8919 9.3 17.8677 5.62396 21.7494 5.62396C25.6311 5.62396 29.6069 9.32312 32.6181 15.7504C35.9587 22.8482 37.7937 32.3504 37.7937 42.5C37.7937 52.6496 35.9587 62.1287 32.6181 69.2496C29.7951 75.2838 26.1251 78.9136 22.4787 79.3298ZM43.2281 67.6774C42.4753 68.3248 41.6048 69.0415 41.0402 70.0588C40.4286 71.1454 40.2404 72.3014 40.0522 73.3187C39.9581 73.8504 39.8169 74.6596 39.6758 74.8446C39.3935 75.1914 38.5701 75.4226 37.7937 75.6538C36.9233 75.8618 36.0999 76.1855 35.3236 76.6017C34.359 77.1797 33.7003 78.1276 33.0886 78.983C33.0181 79.0986 32.924 79.2142 32.8534 79.3067H31.5595C33.5356 77.2259 35.3471 74.5209 36.9233 71.1916C40.5462 63.4928 42.5223 53.3201 42.5223 42.5231C42.5223 31.7262 40.5227 21.5535 36.9233 13.8546C35.3471 10.5022 33.5356 7.77409 31.536 5.69331L35.8176 5.71643C36.0529 5.83203 36.3116 5.97075 36.5939 6.10947C37.6761 6.68747 39.0406 7.4273 39.6758 8.16713C39.8404 8.37521 39.9581 9.16128 40.0522 9.69304C40.2168 10.7103 40.4286 11.8663 41.0402 12.9529C41.6048 13.9702 42.4753 14.6869 43.2281 15.3343C43.7692 15.7967 44.4044 16.3284 44.569 16.7214C44.6867 16.9989 44.5926 17.785 44.522 18.363C44.4044 19.4265 44.2867 20.6518 44.6396 21.9003C44.9925 23.0794 45.7218 24.0273 46.357 24.8365C46.7804 25.3914 47.2745 25.9925 47.345 26.3855C47.4156 26.6861 47.2039 27.4259 47.0392 28.027C46.7569 29.0674 46.4275 30.2696 46.5922 31.5643C46.7569 32.8128 47.3686 33.8532 47.8861 34.778C48.239 35.3791 48.6154 36.0265 48.6389 36.4195C48.6625 36.7432 48.3566 37.4599 48.1214 38.0379C47.6979 39.032 47.2039 40.188 47.2039 41.5058C47.2039 42.8237 47.6979 43.9565 48.1214 44.9738C48.3566 45.5518 48.6625 46.2685 48.6389 46.5922C48.6154 46.9621 48.2155 47.6326 47.8861 48.2337C47.345 49.1585 46.7334 50.1989 46.5922 51.4474C46.4275 52.7652 46.7569 53.9443 47.0392 54.9847C47.2039 55.5858 47.4156 56.3256 47.345 56.6262C47.2745 57.0192 46.7804 57.6203 46.357 58.1752C45.6983 58.9844 44.969 59.9323 44.6396 61.1114C44.2867 62.383 44.4044 63.5852 44.522 64.6487C44.5926 65.2267 44.6631 66.0128 44.569 66.2903C44.4044 66.6833 43.7927 67.215 43.2281 67.6774ZM48.2155 73.3187C48.1214 73.8504 47.9802 74.6596 47.8391 74.8446C47.5568 75.1914 46.5922 77.8039 45.957 75.6538C44.6867 80.4823 42.9555 78.4923 42.3674 78.7235C42.6026 78.0067 44.5926 74.8214 44.6867 74.0816C44.8043 73.388 44.9219 72.6944 45.1572 72.2783C45.2983 72.0008 45.8159 71.5847 46.2864 71.1916C47.2039 70.4056 48.3566 69.4577 48.9448 67.978C49.4623 66.6602 49.3212 65.3423 49.2035 64.1632C49.133 63.4696 49.0624 62.7529 49.18 62.3599C49.2741 62.0362 49.6976 61.5045 50.0975 61.0189C50.8033 60.1173 51.6972 58.9844 52.0031 57.5279C52.2854 56.1407 51.9325 54.8922 51.6267 53.7593C51.4385 53.0889 51.2503 52.4184 51.2973 52.0022C51.3444 51.6554 51.6972 51.0543 52.0266 50.4994C52.5912 49.5284 53.297 48.3031 53.3911 46.8465C53.4852 45.4362 52.9676 44.234 52.4971 43.1705C52.2383 42.5462 51.956 41.8758 51.956 41.5058C51.956 41.1359 52.2383 40.4655 52.4971 39.8412C52.9441 38.7777 53.4617 37.5524 53.3911 36.1652C53.297 34.7086 52.5912 33.4833 52.0266 32.5123C51.7208 31.9805 51.3444 31.3563 51.2973 31.0095C51.2503 30.6164 51.4385 29.9228 51.6267 29.2524C51.9325 28.1426 52.2854 26.871 52.0031 25.4838C51.6972 24.0273 50.8268 22.8944 50.0975 21.9928C49.7211 21.5072 49.2741 20.9524 49.18 20.6518C49.0624 20.2357 49.133 19.5421 49.2035 18.8485C49.3212 17.6925 49.4623 16.3515 48.9448 15.0568C48.3566 13.5772 47.2039 12.6292 46.2864 11.8432C45.8394 11.4733 45.3219 11.034 45.1572 10.7565C44.9219 10.3404 44.8043 9.6468 44.6867 8.9532C44.4985 7.91281 44.3103 6.75682 43.6516 5.73955H44.028C44.2632 5.87827 44.4985 5.99387 44.7572 6.13259C45.8394 6.71059 47.2039 7.45042 47.8391 8.19025C48.0038 8.39833 48.1214 9.1844 48.2155 9.71616C48.3802 10.7334 48.5919 11.8894 49.2035 12.976C49.7682 13.9933 50.6386 14.71 51.3914 15.3574C51.9325 15.8198 52.5677 16.3515 52.7324 16.7214C52.85 16.9989 52.7559 17.785 52.6853 18.363C52.5912 19.4033 52.4501 20.6287 52.8029 21.9003C53.1558 23.0794 53.8851 24.0273 54.5203 24.8365C54.9437 25.3914 55.4378 25.9925 55.5084 26.3855C55.5789 26.6861 55.3672 27.4259 55.2025 28.027C54.9202 29.0674 54.5909 30.2696 54.7555 31.5643C54.9202 32.8128 55.5319 33.8532 56.0494 34.778C56.4023 35.3791 56.7787 36.0265 56.8022 36.4195C56.8258 36.7432 56.5199 37.4599 56.2847 38.0379C55.8612 39.032 55.3672 40.188 55.3672 41.5058C55.3672 42.8237 55.8612 43.9565 56.2847 44.9738C56.5199 45.5518 56.8258 46.2685 56.8022 46.5922C56.7787 46.9621 56.3788 47.6326 56.0494 48.2337C55.5084 49.1585 54.8967 50.1989 54.7555 51.4474C54.5909 52.7652 54.9202 53.9443 55.2025 54.9847C55.3672 55.5858 55.5789 56.3256 55.5084 56.6262C55.4378 57.0192 54.9437 57.6203 54.5203 58.1752C53.8616 58.9844 53.1323 59.9323 52.8029 61.1114C52.4501 62.383 52.5677 63.5852 52.6853 64.6487C52.7559 65.2267 52.8265 66.0128 52.7324 66.2903C52.5677 66.6833 51.956 67.215 51.3914 67.6774C50.6386 68.3248 49.7682 69.0415 49.2035 70.0588C48.5919 71.1454 48.4037 72.3014 48.2155 73.3187ZM60.0958 69.1802C57.1551 75.3532 53.344 79.0061 49.58 79.2373C50.3092 78.8905 50.9444 78.405 51.462 77.8039C52.4265 76.671 52.6618 75.2838 52.8735 74.0816C52.9911 73.388 53.1088 72.6944 53.344 72.2783C53.4852 72.0008 54.0027 71.5847 54.4732 71.1916C55.3907 70.4056 56.5435 69.4577 57.1316 67.978C57.6492 66.6602 57.508 65.3423 57.3904 64.1632C57.3198 63.4696 57.2492 62.7529 57.3669 62.3599C57.461 62.0362 57.8844 61.5045 58.2844 61.0189C58.9901 60.1173 59.8841 58.9844 60.1899 57.5279C60.4722 56.1407 60.1193 54.8922 59.8135 53.7593C59.6253 53.0889 59.4371 52.4184 59.4842 52.0022C59.5312 51.6554 59.8841 51.0543 60.2134 50.4994C60.778 49.5284 61.4838 48.3031 61.5779 46.8465C61.672 45.4362 61.1545 44.234 60.6839 43.1705C60.4252 42.5462 60.1429 41.8758 60.1429 41.5058C60.1429 41.1359 60.4252 40.4655 60.6839 39.8412C61.1309 38.7777 61.6485 37.5524 61.5779 36.1652C61.4838 34.7086 60.778 33.4833 60.2134 32.5123C59.9076 31.9805 59.5312 31.3563 59.4842 31.0095C59.4371 30.6164 59.6253 29.9228 59.8135 29.2524C60.1193 28.1426 60.4722 26.871 60.1899 25.4838C59.8841 24.0273 59.0136 22.8944 58.2844 21.9928C57.9079 21.5072 57.461 20.9524 57.3669 20.6518C57.2492 20.2357 57.3198 19.5421 57.3904 18.8485C57.508 17.6925 57.6492 16.3515 57.1316 15.0337C56.5435 13.554 55.3907 12.6061 54.4732 11.8201C54.0263 11.4501 53.5087 11.0109 53.344 10.7334C53.1088 10.3173 52.9911 9.62368 52.8735 8.93008C52.7559 8.05153 52.5442 7.1961 52.2148 6.38691C55.132 7.70474 57.9315 10.9877 60.1899 15.8198C63.4835 22.8713 65.2949 32.3504 65.2949 42.5C65.2949 52.6265 63.4599 62.0824 60.0958 69.1802Z" fill="#0B3536" stroke="white" stroke-width="2"/>
<path d="M21.9907 26C17.1179 26 14 32.4763 14 42.5C14 52.5237 17.1365 59 22.0093 59C26.8821 59 30 52.5237 30 42.5C30 32.4763 26.8635 26 21.9907 26ZM24.7725 52.2144C24.3991 53.1604 23.3722 55.3434 22.0093 55.3434C20.6464 55.3434 19.6009 53.1604 19.2275 52.2144C18.2567 49.7767 17.734 46.3203 17.734 42.5C17.734 38.6797 18.2754 35.2233 19.2462 32.7856C19.6196 31.8396 20.6464 29.6566 22.0093 29.6566C23.3722 29.6566 24.3991 31.8578 24.7725 32.7856C25.7433 35.2233 26.2847 38.6797 26.2847 42.5C26.2847 46.3203 25.7433 49.7767 24.7725 52.2144Z" fill="#0B3536" stroke="white"/>
</svg>
