<svg width="20" height="87" viewBox="0 0 20 87" fill="none" xmlns="http://www.w3.org/2000/svg">
<path d="M10.1037 1.5C9.89533 1.5 9.56934 1.58579 9.10979 1.99721C8.64119 2.41673 8.11732 3.10513 7.57125 4.11562C6.48015 6.13467 5.45056 9.15531 4.56821 13.0156C2.80903 20.712 1.70732 31.4188 1.70732 43.2968C1.70731 55.1748 2.80901 65.8816 4.56819 73.578C5.45053 77.4383 6.48012 80.4589 7.57122 82.478C8.11729 83.4885 8.64116 84.1769 9.10975 84.5964C9.56931 85.0078 9.8953 85.0936 10.1037 85.0936C10.3121 85.0936 10.6381 85.0078 11.0977 84.5964C11.5663 84.1769 12.0901 83.4885 12.6362 82.478C13.7273 80.4589 14.7569 77.4383 15.6392 73.578C17.3984 65.8816 18.5001 55.1748 18.5001 43.2968C18.5001 31.4188 17.3984 20.712 15.6393 13.0156C14.7569 9.15531 13.7273 6.13467 12.6362 4.11562C12.0902 3.10513 11.5663 2.41673 11.0977 1.99721C10.6382 1.58579 10.3122 1.5 10.1037 1.5Z" fill="#E5E7DE" stroke="#0B3536" stroke-width="3"/>
<mask id="mask0" mask-type="alpha" maskUnits="userSpaceOnUse" x="0" y="0" width="21" height="87">
<path d="M10.1037 1.5C9.89533 1.5 9.56934 1.58579 9.10979 1.99721C8.64119 2.41673 8.11732 3.10513 7.57125 4.11562C6.48015 6.13467 5.45056 9.15531 4.56821 13.0156C2.80903 20.712 1.70732 31.4188 1.70732 43.2968C1.70731 55.1748 2.80901 65.8816 4.56819 73.578C5.45053 77.4383 6.48012 80.4589 7.57122 82.478C8.11729 83.4885 8.64116 84.1769 9.10975 84.5964C9.56931 85.0078 9.8953 85.0936 10.1037 85.0936C10.3121 85.0936 10.6381 85.0078 11.0977 84.5964C11.5663 84.1769 12.0901 83.4885 12.6362 82.478C13.7273 80.4589 14.7569 77.4383 15.6392 73.578C17.3984 65.8816 18.5001 55.1748 18.5001 43.2968C18.5001 31.4188 17.3984 20.712 15.6393 13.0156C14.7569 9.15531 13.7273 6.13467 12.6362 4.11562C12.0902 3.10513 11.5663 2.41673 11.0977 1.99721C10.6382 1.58579 10.3122 1.5 10.1037 1.5Z" fill="white" stroke="#0B3536" stroke-width="3"/>
</mask>
<g mask="url(#mask0)">
<ellipse rx="43.2968" ry="9.89641" transform="matrix(3.93403e-07 -1 -1 -3.93403e-07 16.9881 43.2968)" fill="#0B3536"/>
</g>
</svg>
