<svg width="85" height="85" viewBox="0 0 85 85" fill="none" xmlns="http://www.w3.org/2000/svg">
<path d="M42.5 3.64288C21.1285 3.64288 3.64282 21.1286 3.64282 42.5C3.64282 63.8715 21.1285 81.3572 42.5 81.3572C63.8714 81.3572 81.3571 63.8715 81.3571 42.5C81.3571 21.1286 63.8714 3.64288 42.5 3.64288ZM78.4428 48.2072L73.7071 40.4357L76.9857 30.8429C78.2 34.4857 78.9285 38.3715 78.9285 42.5C78.9285 44.4429 78.8071 46.3857 78.4428 48.2072ZM69.3357 67.15C69.2142 67.15 68.9714 67.15 68.85 67.15L57.0714 68.9715C57.0714 68.85 56.95 68.7286 56.95 68.6072L50.2714 57.4357L61.0785 40.8H71.2785C71.2785 40.9215 71.2785 41.0429 71.4 41.1643L77.7142 51.7286C76.2571 57.5572 73.2214 62.7786 69.3357 67.15ZM57.0714 71.5215L66.4214 70.0643C62.4142 73.5857 57.5571 76.2572 52.2142 77.7143L57.0714 71.5215ZM18.9428 14.6929C25.1357 9.47146 33.0285 6.31431 41.65 6.07145C41.7714 6.19288 41.7714 6.43574 41.8928 6.55717L48.5714 12.8715L45.9 22.8286L28.6571 29.5072C28.5357 29.5072 28.5357 29.3857 28.4142 29.3857L17.6071 23.6786L18.9428 14.6929ZM50.2714 11.05L45.05 6.19288C49.7857 6.55717 54.2785 7.77145 58.4071 9.71431L50.2714 11.05ZM30.2357 50.6357L29.2642 31.6929L46.8714 24.8929L58.7714 39.5857L48.5714 55.6143L30.2357 50.6357ZM75.65 27.4429C75.65 27.5643 75.5285 27.5643 75.5285 27.6857L71.8857 38.4929H60.9571L48.45 22.95L51 13.3572L61.0785 11.6572C61.3214 11.6572 61.4428 11.5357 61.6857 11.4143C67.7571 15.3 72.6142 20.8857 75.65 27.4429ZM16.15 17.3643L15.1785 24.1643L8.74282 29.0215C10.4428 24.65 12.9928 20.6429 16.15 17.3643ZM7.40711 32.9072C7.40711 32.9072 7.52854 32.9072 7.52854 32.7857L16.8785 25.7429L26.8357 30.9643L27.9285 51.7286C27.9285 51.7286 27.9285 51.7286 27.9285 51.85L18.5785 61.0786C18.4571 61.2 18.4571 61.2 18.4571 61.3215L9.47139 57.4357H9.34996C7.28568 52.8215 6.07139 47.8429 6.07139 42.5C6.07139 39.2215 6.55711 35.9429 7.40711 32.9072ZM11.05 60.8357L17.6071 63.6286L22.5857 72.9786C17.85 69.9429 13.8428 65.6929 11.05 60.8357ZM26.4714 75.2857C26.4714 75.1643 26.4714 75.1643 26.35 75.0429L19.9142 63.0215C20.0357 63.0215 20.1571 62.9 20.1571 62.9L29.8714 53.3072L47.4785 58.0429L54.6428 70.0643C54.6428 70.1857 54.7642 70.3072 54.8857 70.3072L48.3285 78.6857C46.5071 78.8072 44.5642 78.9286 42.5 78.9286C36.7928 78.9286 31.3285 77.5929 26.4714 75.2857Z" fill="#0B3536" stroke="#0B3536" stroke-width="0.5" stroke-miterlimit="10"/>
</svg>
