<svg width="75" height="58" viewBox="0 0 75 58" fill="none" xmlns="http://www.w3.org/2000/svg">
<path d="M65.2735 38.3323H65.816C67.3596 36.6102 68.3007 34.3371 68.3007 31.848C68.3007 26.5415 64.0284 22.2168 58.7432 22.1257C59.0827 17.644 57.8873 14.4304 55.1112 12.3372C52.442 10.3246 48.7174 9.69613 45.1152 9.08838C38.3165 7.94114 34.1129 6.85355 33.0644 1.43588C32.9777 0.987972 32.7061 0.597289 32.3166 0.3598C31.9269 0.122149 31.4553 0.0597373 31.0174 0.187965C24.151 2.19779 19.5991 5.62201 17.4882 10.3653C15.4743 14.8911 16.2226 19.4604 17.001 22.1213H16.4259C11.0627 22.1213 6.69934 26.4846 6.69934 31.8478C6.69934 34.337 7.64038 36.6101 9.18398 38.3322H9.72652C4.36332 38.3322 0 42.6955 0 48.0587C0 53.4219 4.36332 57.7852 9.72652 57.7852H65.2735C70.6367 57.7852 75 53.4219 75 48.0587C75 42.6956 70.6367 38.3323 65.2735 38.3323ZM20.4504 11.6836C21.9987 8.20441 25.3232 5.55928 30.3435 3.80672C31.2669 6.51442 33.0316 8.50933 35.6998 9.87542C38.3574 11.236 41.5187 11.7695 44.5759 12.2853C51.9199 13.5247 56.1905 14.6362 55.4937 22.1214H20.4086C19.7458 20.2656 18.5822 15.8814 20.4504 11.6836ZM16.4259 25.3636H58.5741C62.1496 25.3636 65.0585 28.2725 65.0585 31.848C65.0585 35.4234 62.1496 38.3323 58.5741 38.3323H16.4259C12.8504 38.3323 9.94151 35.4233 9.94151 31.848C9.94151 28.2725 12.8504 25.3636 16.4259 25.3636ZM65.2735 54.5432H9.72652C6.15105 54.5432 3.24217 51.6343 3.24217 48.0588C3.24217 44.4834 6.15105 41.5745 9.72652 41.5745H65.2735C68.8489 41.5745 71.7578 44.4834 71.7578 48.0588C71.7578 51.6341 68.8489 54.5432 65.2735 54.5432Z" fill="#0B3536"/>
</svg>
