<svg width="51" height="64" viewBox="0 0 51 64" fill="none" xmlns="http://www.w3.org/2000/svg">
<path d="M31.5331 24.8558C31.2921 24.8558 31.0534 24.8717 30.8183 24.9034C30.8499 24.6683 30.8658 24.4295 30.8658 24.1886C30.8658 21.872 29.4073 19.8388 27.2363 19.1295C26.237 18.8027 24.7111 18.432 22.9353 18.432H22.9016C23.497 17.4471 24.3361 16.1448 25.3568 14.7888C27.3741 12.1088 27.1878 9.44042 24.858 7.65123C23.8046 6.84207 21.7686 5.9602 18.9869 7.85598C19.0129 7.68221 19.0402 7.50122 19.0705 7.30456C19.5924 3.906 17.4272 1.90977 15.1947 1.49305C12.6979 1.0259 10.5174 3.04282 9.92894 5.17781C9.6741 6.10248 9.32531 7.57346 8.95179 9.39362C8.41139 9.21903 7.72585 9.12763 6.80066 9.20372C4.85863 9.36397 2.52997 10.7858 2.35805 14.2663C2.15058 18.4742 4.31313 29.9132 6.6958 37.1086C7.00047 38.263 7.41852 39.4238 7.97172 40.5856C10.554 46.0089 14.8868 48.9224 21.2174 49.493C21.6431 49.5313 22.1166 49.5562 22.6279 49.5562C26.0312 49.5562 31.0958 48.4457 34.6754 42.7517C37.0859 38.9174 37.918 32.6558 36.5696 28.4964C35.8634 26.3189 33.8395 24.8558 31.5331 24.8558ZM12.0213 5.75924C12.3479 4.57319 13.6054 3.4129 14.7979 3.63572C15.9817 3.85665 17.2491 4.86303 16.9252 6.97252C16.6338 8.86995 16.5314 9.73185 16.4951 10.1084C14.6202 12.0938 11.731 15.5093 9.46612 19.7608C10.1765 13.7298 11.3918 8.04225 12.0213 5.75924ZM6.77026 26.5846C6.65714 27.0307 6.55484 27.4808 6.46635 27.9353C5.24204 22.4666 4.4007 16.9183 4.52626 14.3739C4.65473 11.769 6.43565 11.4204 6.97834 11.3757C7.78103 11.3094 8.21565 11.4067 8.52752 11.5658C7.7183 15.9138 6.91306 21.508 6.76572 26.5202C6.76506 26.5422 6.7696 26.5629 6.77026 26.5846ZM32.8396 41.5885C29.5139 46.8787 24.7883 47.6259 21.4115 47.3225C18.0316 47.0178 13.2628 45.9475 10.2692 40.3159C10.2506 40.2369 10.2253 40.1586 10.188 40.0827C9.73214 39.1548 9.26334 37.9487 8.79986 36.5628C5.78846 25.1262 15.5363 14.1301 18.832 10.8215C20.0982 9.5506 21.226 8.91321 22.2024 8.91321C22.6855 8.91321 23.1317 9.06942 23.5392 9.38205C24.0354 9.76323 25.5456 10.9231 23.6248 13.4748C21.9107 15.7524 20.7002 17.8523 20.2126 18.7397C17.5045 19.3722 14.574 21.1041 12.1613 25.0419C11.8472 25.5544 12.0066 26.2256 12.5172 26.5408C13.0275 26.8562 13.6961 26.6961 14.0103 26.1835C18.0454 19.5976 23.6078 20.2346 26.5642 21.2016C28.036 21.6825 28.6949 23.0482 28.6949 24.1885C28.6949 25.0283 28.3652 25.8227 27.7687 26.4235C26.9361 27.2573 25.701 27.5661 24.6222 27.211C22.5981 26.5444 20.1569 27.2525 18.4016 29.0142C15.8766 31.5493 15.5194 35.3358 17.5882 37.6342C18.878 39.0669 20.8369 39.9524 22.8284 40.0031C24.4098 40.0388 25.7907 39.5576 26.7088 38.6359C28.9277 36.4086 29.217 33.2565 28.5196 31.1202C28.165 30.0355 28.4719 28.7975 29.3027 27.9654C29.9005 27.3654 30.6925 27.0349 31.5331 27.0349C32.918 27.0349 34.0847 27.8734 34.5053 29.1708C35.6573 32.7245 34.9101 38.2951 32.8396 41.5885ZM26.457 31.7996C26.9475 33.3019 26.7411 35.5218 25.1741 37.095C24.6876 37.5834 23.8566 37.8488 22.8833 37.8245C21.4748 37.7888 20.0976 37.1714 19.199 36.1731C17.7746 34.5907 18.4729 32.0248 19.9367 30.5552C20.8434 29.645 21.9807 29.1389 23.0273 29.1389C23.3446 29.1389 23.6539 29.1855 23.9456 29.2817C24.7003 29.5303 25.4836 29.5973 26.2423 29.4959C26.142 30.2569 26.2094 31.0422 26.457 31.7996Z" fill="#0B3536"/>
<path d="M30.3801 14.2633C30.5218 14.3257 30.6695 14.355 30.8147 14.355C31.2327 14.355 31.6313 14.1111 31.8096 13.7021L34.7517 6.95296C34.9922 6.40154 34.7418 5.75903 34.1927 5.51793C33.6435 5.27616 33.0035 5.52817 32.7633 6.07913L29.8211 12.8283C29.5807 13.3797 29.8311 14.0221 30.3801 14.2633Z" fill="#0B3536"/>
<path d="M44.1663 13.4905C43.8133 13.0038 43.1343 12.8972 42.6499 13.2507L36.7732 17.5449C36.2886 17.8993 36.1815 18.5807 36.5343 19.0672C36.7469 19.3603 37.0774 19.5156 37.4127 19.5156C37.6343 19.5156 37.8579 19.4477 38.0506 19.3071L43.9273 15.0128C44.4119 14.6585 44.519 13.977 44.1663 13.4905Z" fill="#0B3536"/>
<path d="M48.2678 25.4527C48.18 24.8577 47.6291 24.4459 47.0349 24.5351L40.7329 25.4747C40.14 25.563 39.7306 26.1172 39.8188 26.7124C39.8988 27.2534 40.3619 27.6422 40.8911 27.6422C40.9441 27.6422 40.9977 27.6382 41.0518 27.6301L47.3537 26.6905C47.9467 26.6022 48.356 26.048 48.2678 25.4527Z" fill="#0B3536"/>
</svg>
