<svg width="54" height="76" viewBox="0 0 54 76" fill="none" xmlns="http://www.w3.org/2000/svg">
<g clip-path="url(#clip0)">
<path d="M31.5866 12.2695V49.0947C31.5866 49.5414 31.4103 49.9698 31.0963 50.2856C30.7824 50.6015 30.3567 50.7789 29.9127 50.7789H23.2171C22.7732 50.7789 22.3474 50.6015 22.0335 50.2856C21.7196 49.9698 21.5432 49.5414 21.5432 49.0947V12.2695L26.4059 1.05261L31.5866 12.2695Z" fill="#F54123" stroke="white" stroke-width="2.25" stroke-linecap="round" stroke-linejoin="round"/>
<path d="M22.2212 11.579L24.3136 13.2632L26.4059 11.579L28.4983 13.2632L30.5907 11.579" fill="#F54123"/>
<path d="M22.2209 11.5789L24.3133 13.2631L26.4057 11.5789L28.4981 13.2631L30.5904 11.5789" stroke="white" stroke-width="2.25" stroke-linecap="round" stroke-linejoin="round"/>
<path d="M24.7319 4.84205H28.0797L26.4058 3.15784L24.7319 4.84205Z" fill="#F54123" stroke="white" stroke-width="2.25" stroke-linecap="round" stroke-linejoin="round"/>
<path d="M16.5214 15.6379V52.4631C16.5214 52.9098 16.3451 53.3382 16.0312 53.654C15.7172 53.9699 15.2915 54.1473 14.8475 54.1473H8.15193C7.70798 54.1473 7.28222 53.9699 6.9683 53.654C6.65438 53.3382 6.47803 52.9098 6.47803 52.4631V15.6379L11.3407 4.42102L16.5214 15.6379Z" fill="#F54123" stroke="white" stroke-width="2.25" stroke-linecap="round" stroke-linejoin="round"/>
<path d="M7.15601 14.9474L9.24838 16.6316L11.3324 14.9474L13.4331 16.6316L15.5255 14.9474" fill="#F54123"/>
<path d="M7.15601 14.9474L9.24838 16.6316L11.3324 14.9474L13.4331 16.6316L15.5255 14.9474" stroke="white" stroke-width="2.25" stroke-linecap="round" stroke-linejoin="round"/>
<path d="M9.66675 8.21046H13.0145L11.3406 6.52625L9.66675 8.21046Z" fill="#F54123" stroke="white" stroke-width="2.25" stroke-linecap="round" stroke-linejoin="round"/>
<path d="M38.123 14.9474L40.2154 16.6316L42.3078 14.9474L44.4002 16.6316L46.4925 14.9474" fill="#F54123"/>
<path d="M22.4637 23.5789L26.6485 60.16C26.6865 60.5938 26.5561 61.0256 26.2846 61.3647C26.0131 61.7039 25.6215 61.924 25.1922 61.9789L18.4966 62.7452C18.0637 62.7958 17.6283 62.6745 17.2829 62.4072C16.9375 62.1399 16.7094 61.7476 16.6469 61.3137L12.4622 24.7326L16.0192 13.0273L22.4637 23.5789Z" fill="#F54123" stroke="white" stroke-width="2.25" stroke-linecap="round" stroke-linejoin="round"/>
<path d="M13.0815 23.9663L15.3497 25.3979L17.2328 23.4779L19.5093 24.9095L21.4008 22.9979" fill="#F54123"/>
<path d="M13.0815 23.9663L15.3497 25.3979L17.2328 23.4779L19.5093 24.9095L21.4008 22.9979" stroke="white" stroke-width="2.25" stroke-linecap="round" stroke-linejoin="round"/>
<path d="M14.814 16.9852L18.1367 16.5978L16.2786 15.1157L14.814 16.9852Z" fill="#F54123" stroke="white" stroke-width="2.25" stroke-linecap="round" stroke-linejoin="round"/>
<path d="M32.2867 16.6676L25.3362 52.8291C25.265 53.2537 25.358 53.6893 25.5962 54.0465C25.8343 54.4038 26.1996 54.6555 26.6169 54.7499L33.185 56.0141C33.6128 56.0971 34.0562 56.0089 34.4209 55.7684C34.7856 55.5278 35.0429 55.1538 35.1381 54.7258L42.0885 18.5643L39.4555 6.62674L32.2867 16.6676Z" fill="#F54123" stroke="white" stroke-width="2.25" stroke-linecap="round" stroke-linejoin="round"/>
<path d="M40.1151 18.8968L38.232 16.9852L35.9638 18.4168L34.0723 16.5052L31.8042 17.9368" fill="#F54123"/>
<path d="M41.2523 19.4049L39.5197 17.3571L37.1493 18.6139L35.4084 16.5654L33.038 17.8223" stroke="white" stroke-width="2.25" stroke-linecap="round" stroke-linejoin="round"/>
<path d="M40.3822 10.6658L37.0901 10.0289L39.0553 8.69084L40.3822 10.6658Z" fill="#F54123" stroke="white" stroke-width="2.25" stroke-linecap="round" stroke-linejoin="round"/>
<path d="M52.9538 26.4168L44.5926 62.3158C44.4802 62.7387 44.2085 63.101 43.8351 63.3258C43.4617 63.5506 43.0159 63.6203 42.5923 63.52L36.0725 61.9453C35.6467 61.8447 35.2768 61.5805 35.0422 61.209C34.8076 60.8376 34.7268 60.3885 34.8171 59.9579L43.1866 24.1095L50.468 14.3158L52.9538 26.4168Z" fill="#F54123" stroke="white" stroke-width="2.25" stroke-linecap="round" stroke-linejoin="round"/>
<path d="M43.9985 23.5874L45.6557 25.7095L48.0745 24.5558L49.7233 26.6779L52.1504 25.5158" fill="#F54123"/>
<path d="M43.9985 23.5874L45.6557 25.7095L48.0745 24.5558L49.7233 26.6779L52.1504 25.5158" stroke="white" stroke-width="2.25" stroke-linecap="round" stroke-linejoin="round"/>
<path d="M47.9741 17.6084L51.2382 18.3831L49.9912 16.3536L47.9741 17.6084Z" fill="#F54123" stroke="white" stroke-width="2.25" stroke-linecap="round" stroke-linejoin="round"/>
<path d="M8.36946 74.9474C8.02931 74.946 7.70064 74.8234 7.44173 74.6015C7.18281 74.3795 7.01039 74.0724 6.95502 73.7348L1.09637 36.6148C1.06218 36.4088 1.07371 36.1978 1.13014 35.9969C1.18658 35.796 1.28651 35.6101 1.42278 35.4527C1.5567 35.2939 1.72343 35.1664 1.91135 35.0792C2.09927 34.9919 2.30385 34.9469 2.51081 34.9474H9.3738C9.68216 34.956 9.98017 35.0612 10.2262 35.2484C10.4723 35.4356 10.6541 35.6954 10.7464 35.9916C11.8811 39.3714 14.0406 42.308 16.9211 44.388C19.8015 46.4681 23.2578 47.5869 26.8033 47.5869C30.3488 47.5869 33.8051 46.4681 36.6855 44.388C39.5659 42.308 41.7255 39.3714 42.8602 35.9916C42.9506 35.6927 43.1331 35.4305 43.3814 35.2428C43.6296 35.0552 43.9307 34.9517 44.2411 34.9474H51.0539C51.2607 34.948 51.4649 34.9935 51.6527 35.0807C51.8404 35.1679 52.0073 35.2947 52.1419 35.4527C52.2782 35.6101 52.3781 35.796 52.4346 35.9969C52.491 36.1978 52.5025 36.4088 52.4683 36.6148L46.5762 73.7348C46.525 74.0682 46.3583 74.3728 46.1057 74.5946C45.853 74.8165 45.5306 74.9414 45.1953 74.9474H8.36946Z" fill="#F54123"/>
<path d="M51.054 35.9999C51.1096 35.9998 51.1646 36.0117 51.2151 36.035C51.2657 36.0583 51.3107 36.0923 51.3469 36.1347C51.3823 36.1775 51.4081 36.2275 51.4226 36.2813C51.437 36.335 51.4398 36.3913 51.4306 36.4462L45.572 73.5662C45.5581 73.657 45.5126 73.7399 45.4436 73.8C45.3746 73.8602 45.2866 73.8937 45.1954 73.8947H8.36956C8.27828 73.8937 8.19029 73.8602 8.12131 73.8C8.05232 73.7399 8.00682 73.657 7.99294 73.5662L2.13429 36.4462C2.12516 36.3913 2.1279 36.335 2.14235 36.2813C2.15679 36.2275 2.18259 36.1775 2.21798 36.1347C2.25424 36.0923 2.29921 36.0583 2.34977 36.035C2.40034 36.0117 2.45532 35.9998 2.51092 35.9999H9.3739C9.46365 36.0088 9.54857 36.045 9.61736 36.1037C9.68614 36.1623 9.73551 36.2407 9.7589 36.3283C10.9652 39.9142 13.2583 43.0293 16.3157 45.2357C19.373 47.4421 23.0409 48.6288 26.8034 48.6288C30.5659 48.6288 34.2337 47.4421 37.2911 45.2357C40.3485 43.0293 42.6416 39.9142 43.8479 36.3283C43.8713 36.2407 43.9206 36.1623 43.9894 36.1037C44.0582 36.045 44.1431 36.0088 44.2329 35.9999H51.054ZM51.054 33.8947H44.1994C43.6736 33.9033 43.1637 34.0778 42.7417 34.3936C42.3198 34.7093 42.007 35.1504 41.8476 35.6547C40.7826 38.8253 38.7564 41.5802 36.0539 43.5315C33.3514 45.4828 30.1088 46.5323 26.7825 46.5323C23.4561 46.5323 20.2135 45.4828 17.511 43.5315C14.8086 41.5802 12.7823 38.8253 11.7174 35.6547C11.557 35.1477 11.2417 34.7047 10.8164 34.3887C10.3911 34.0726 9.87749 33.8998 9.3488 33.8947H2.51092C2.14859 33.8909 1.78975 33.9661 1.45904 34.115C1.12832 34.264 0.83357 34.4832 0.595023 34.7576C0.356475 35.0321 0.179784 35.3552 0.077085 35.7048C-0.0256142 36.0544 -0.0518885 36.4223 6.65379e-05 36.7831L5.93404 73.9031C6.03347 74.4834 6.33127 75.0106 6.77598 75.3934C7.22068 75.7763 7.78435 75.9908 8.36956 75.9999H45.1954C45.782 75.9928 46.3477 75.7791 46.7941 75.3961C47.2405 75.0131 47.5396 74.4848 47.6392 73.9031L53.4979 36.7831C53.5491 36.4279 53.5244 36.0658 53.4256 35.7209C53.3268 35.376 53.1561 35.0563 52.9249 34.783C52.6937 34.5097 52.4072 34.2891 52.0846 34.136C51.762 33.9828 51.4107 33.9005 51.054 33.8947V33.8947Z" fill="white" stroke="white" stroke-width="0.5"/>
</g>
<defs>
<clipPath id="clip0">
<rect width="54" height="76" fill="white"/>
</clipPath>
</defs>
</svg>
