<svg width="79" height="70" viewBox="0 0 79 70" fill="none" xmlns="http://www.w3.org/2000/svg">
<path d="M72.1981 0.966064H7.69849C4.13768 0.969717 1.25242 3.51948 1.24829 6.66624V63.6659C1.25242 66.8126 4.13768 69.3624 7.69849 69.3661H72.1981C75.7589 69.3624 78.6442 66.8126 78.6483 63.6659V6.66624C78.6442 3.51948 75.7589 0.969717 72.1981 0.966064V0.966064ZM7.69849 3.24603H72.1981C74.3358 3.24603 76.0683 4.77714 76.0683 6.66624V10.0859H3.82825V6.66624C3.82825 4.77714 5.56082 3.24603 7.69849 3.24603ZM72.1981 67.0861H7.69849C5.56082 67.0861 3.82825 65.555 3.82825 63.6659V12.3659H76.0683V63.6659C76.0683 65.555 74.3358 67.0861 72.1981 67.0861Z" fill="white" stroke="white" stroke-width="0.5"/>
<path d="M7.69897 5.52637H10.2789V7.80633H7.69897V5.52637Z" fill="white"/>
<path d="M12.8589 5.52637H15.4388V7.80633H12.8589V5.52637Z" fill="white"/>
<path d="M18.0188 5.52637H20.5988V7.80633H18.0188V5.52637Z" fill="white"/>
<path d="M40.2261 35.5062C40.7661 35.4528 40.7751 34.8205 40.7121 34.5267C40.5722 33.6189 40.1799 32.7676 39.5791 32.0678C38.9783 31.368 38.1927 30.8473 37.3101 30.5638C36.0766 30.1702 34.7767 30.0219 33.4851 30.1275C32.565 30.1597 31.655 30.3278 30.7851 30.6261C30.1985 30.8237 29.6577 31.1349 29.1941 31.5416C28.7305 31.9483 28.3535 32.4424 28.0851 32.9949C27.7014 33.8316 27.5374 34.7505 27.6081 35.6665C27.6515 36.4463 27.8698 37.2068 28.2471 37.8928C28.6769 38.6584 29.3698 39.246 30.2001 39.5492C31.2698 39.9213 32.3644 40.2189 33.4761 40.4397C34.2436 40.6187 35.0007 40.8387 35.7441 41.0987C36.5454 41.3427 37.2642 41.7984 37.8231 42.4167C37.9071 42.5274 37.9543 42.6612 37.9581 42.7996C38.0159 43.2582 37.905 43.7221 37.6455 44.1064C37.386 44.4907 36.9954 44.7697 36.5451 44.8924C35.221 45.3066 33.7927 45.2531 32.5041 44.741C31.9536 44.5307 31.4972 44.1328 31.2171 43.6189C31.0817 43.3374 30.9906 43.0371 30.9471 42.7284C30.9471 42.7284 31.0461 42.3544 30.0471 42.4167H29.1471C28.1121 42.4167 27.2571 42.1406 27.3471 43.1558L27.4281 43.5031C27.4196 43.5473 27.4196 43.5926 27.4281 43.6367C27.6638 44.6451 28.1824 45.567 28.9244 46.2965C29.6664 47.0259 30.6015 47.5332 31.6221 47.7599C33.1184 48.0953 34.6619 48.1736 36.1851 47.9914H36.2571C37.0645 47.9219 37.85 47.695 38.5683 47.3235C39.2866 46.9521 39.9234 46.4436 40.4421 45.8274C40.9819 45.0868 41.3113 44.2165 41.3961 43.3072C41.5222 42.5364 41.4534 41.7467 41.1958 41.0085C40.9382 40.2704 40.5 39.6069 39.9201 39.0772C39.873 39.0338 39.8218 38.995 39.7671 38.9615C38.8134 38.4464 37.7929 38.0628 36.7341 37.8216L33.1341 36.8509C32.5601 36.7118 32.025 36.4471 31.5681 36.0762C31.4155 35.9591 31.2916 35.8094 31.2059 35.6381C31.1202 35.4669 31.0748 35.2787 31.0731 35.0877C31.0662 34.6553 31.2075 34.2334 31.4739 33.8906C31.7402 33.5478 32.116 33.3043 32.5401 33.1998C33.3883 32.9686 34.28 32.9411 35.1411 33.1196C35.594 33.1825 36.0241 33.3553 36.3931 33.6225C36.7621 33.8898 37.0586 34.2432 37.2561 34.6513C37.5891 35.6487 38.1561 35.5418 38.1561 35.5418L40.2261 35.5062Z" fill="white" stroke="#F54123" stroke-width="0.25" stroke-miterlimit="10"/>
<path d="M49.1001 51.037C50.6661 51.7762 50.0001 50.4315 50.0001 50.4315L48.3621 46.6289L46.6791 41.4372C46.6418 41.3223 46.6416 41.1987 46.6787 41.0838C46.7159 40.9688 46.7884 40.8682 46.8861 40.796L54.6981 35.2035C54.7958 35.1311 54.8681 35.0303 54.9049 34.9151C54.9417 34.8 54.9413 34.6764 54.9036 34.5616C54.8659 34.4467 54.7929 34.3464 54.6947 34.2747C54.5965 34.203 54.4781 34.1634 54.3561 34.1616H44.6901C44.5662 34.1619 44.4454 34.1232 44.3451 34.0512C44.2448 33.9792 44.1702 33.8775 44.1321 33.7609L41.1531 24.722C41.1136 24.6078 41.039 24.5087 40.9398 24.4385C40.8405 24.3683 40.7216 24.3306 40.5996 24.3306C40.4776 24.3306 40.3587 24.3683 40.2594 24.4385C40.1602 24.5087 40.0856 24.6078 40.0461 24.722L38.5161 29.3171L38.6421 29.3795C39.4238 29.7432 40.1197 30.265 40.6851 30.9112C41.6059 31.9425 42.1923 33.2239 42.3681 34.589C42.4491 35.1679 42.4581 35.7378 42.4851 36.3167V36.5304H46.9851C47.1049 36.5374 47.2196 36.5807 47.3136 36.6544C47.4077 36.7281 47.4766 36.8286 47.5109 36.9423C47.5453 37.0561 47.5435 37.1775 47.5058 37.2902C47.4681 37.4029 47.3963 37.5014 47.3001 37.5723L44.0511 39.8788C43.9499 39.9503 43.8745 40.0519 43.8356 40.1688C43.7968 40.2857 43.7966 40.4118 43.8351 40.5288L45.4191 45.311C45.6441 46.1124 43.6191 44.5362 43.6191 44.5362C43.5448 44.4806 43.4579 44.4437 43.3659 44.4286C43.274 44.4135 43.1797 44.4207 43.0912 44.4496C43.0027 44.4785 42.9226 44.5282 42.8578 44.5945C42.793 44.6608 42.7454 44.7416 42.7191 44.8301C42.562 45.3404 42.3445 45.8307 42.0711 46.2905C41.7111 47.003 49.1001 51.037 49.1001 51.037Z" fill="white" stroke="#F54123" stroke-width="0.25" stroke-miterlimit="10"/>
</svg>
